<svg preserveAspectRatio="none" width="100%" height="100%" overflow="visible" style="display: block;" viewBox="0 0 107.695 34.2026" fill="none" xmlns="http://www.w3.org/2000/svg">
<g id="Clip path group">
<path id="Vector" d="M14.63 27.6651L12.6 22.5051H5.1L3.2 27.6651H0L7.84 7.3451H10.08L18.1 27.6551H14.63V27.6651ZM9.68 14.3851C9.34 13.3651 9.07 12.5451 8.94 11.8951H8.91C8.73 12.6051 8.48 13.4051 8.11 14.3551L6.12 19.7951H11.56L9.69 14.3851H9.68Z" fill="var(--fill-0, #909093)"/>
<path id="Vector_2" d="M26.0904 27.6554H20.6504V7.41542H26.2104C33.6804 7.41542 37.3604 11.5254 37.3604 17.3354C37.3604 23.1454 33.4004 27.6654 26.0804 27.6654M26.2404 10.2054H23.8704V24.8854H26.2404C31.8604 24.8854 33.9504 21.3554 33.9504 17.3854C33.9504 13.4154 31.4604 10.1954 26.2404 10.1954" fill="var(--fill-0, #909093)"/>
<path id="Vector_3" d="M44.5298 7.41542H41.2998V27.6654H44.5298V7.41542Z" fill="var(--fill-0, #909093)"/>
<path id="Vector_4" d="M54.4795 27.6554H48.5195V7.41542H54.6695C58.5395 7.41542 60.3195 9.99542 60.3195 12.3854C60.3195 14.2654 59.4295 15.9154 57.7395 16.6854V16.7154C59.8595 17.1754 61.6095 19.1154 61.6095 21.6354C61.6095 24.4654 59.6695 27.6554 54.4795 27.6554ZM51.7395 10.2054V15.9454H54.0495C55.5495 15.9454 57.0295 14.8454 57.0295 12.9954C57.0295 11.3054 56.0095 10.1954 53.7995 10.1954H51.7395V10.2054ZM54.4795 18.7154H51.7495V24.8854H54.3295C56.9395 24.8854 58.2595 23.5954 58.2595 21.6554C58.2595 19.9354 56.8495 18.7054 54.4795 18.7054" fill="var(--fill-0, #909093)"/>
<g id="Group 427319881">
<path id="Vector_5" d="M90.5941 34.0772C99.9696 34.0772 107.57 26.4768 107.57 17.1013C107.57 7.72575 99.9696 0.125376 90.5941 0.125376C81.2185 0.125376 73.6182 7.72575 73.6182 17.1013C73.6182 26.4768 81.2185 34.0772 90.5941 34.0772Z" stroke="var(--stroke-0, #F4F4F4)" stroke-width="0.250752" stroke-miterlimit="10"/>
<path id="Vector_6" d="M98.242 32.2216C88.7636 29.3881 86.8328 21.7401 86.8328 21.7401C86.8328 21.7401 83.8489 18.355 83.8489 18.1042C83.8489 17.8535 80.5139 13.9668 80.5139 13.9668L79.6864 12.036H75.4487L74.0946 13.2647C73.7937 14.5185 73.6432 15.8224 73.6182 17.1514C73.6432 26.5044 81.241 34.0771 90.5941 34.0771C93.3524 34.0771 95.9602 33.4001 98.2922 32.2466C98.2671 32.2466 98.2671 32.2467 98.242 32.2216Z" fill="var(--fill-0, #909093)"/>
<path id="Vector_7" d="M92.7254 0.375927C92.6753 0.375927 92.6251 0.35085 92.575 0.35085C92.4245 0.325775 92.2741 0.325772 92.1487 0.300696C91.6472 0.250546 91.1457 0.225474 90.6442 0.225474H90.6191C83.5981 0.225474 77.5549 4.51334 74.9722 10.6066C74.8719 10.8323 74.7716 11.083 74.6964 11.3338C74.6713 11.3839 74.6713 11.409 74.6462 11.4592C74.571 11.6598 74.4958 11.8854 74.4205 12.0861C74.3955 12.1362 74.3955 12.1864 74.3704 12.2365C74.2952 12.4371 74.245 12.6628 74.1949 12.8634C74.1949 12.9135 74.1698 12.9637 74.1447 13.0138C74.1447 13.064 74.1196 13.0891 74.1196 13.1392L74.1447 13.2897L75.8749 15.7721C77.5549 17.7531 80.5138 20.3609 85.0775 21.4391C85.1026 21.4391 85.1277 21.4391 85.1527 21.4642C85.3032 21.4893 85.4787 21.5394 85.6292 21.5645C85.9301 21.6146 86.231 21.6648 86.5569 21.7149L86.6322 21.74C86.7074 21.74 86.7575 21.7651 86.8328 21.7651V21.74L88.563 18.0038L90.1427 12.9386L93.5279 5.79217L94.7064 0.777124C94.0795 0.601598 93.4025 0.451152 92.7254 0.375927Z" fill="var(--fill-0, #B0B0B0)"/>
<path id="Vector_8" d="M105.263 8.62586L101.878 9.52857L95.6092 13.4654L89.4657 18.8566L86.8579 21.7653C86.8579 21.7653 88.7887 29.4132 98.2671 32.2467C98.2922 32.2467 98.3173 32.2467 98.3424 32.2467C103.658 29.5386 107.369 24.0973 107.62 17.7783C107.62 17.7031 107.62 17.6028 107.62 17.5276C107.62 17.4022 107.62 17.3019 107.62 17.1765C107.57 14.0421 106.717 11.1334 105.263 8.62586Z" fill="var(--fill-0, #B0B0B0)"/>
<path id="Vector_9" d="M103.708 12.7884C105.363 10.8074 106.04 10.5316 106.216 10.5065C104.134 5.69206 99.8966 2.03108 94.706 0.752244C81.7171 8.82647 86.8324 21.7151 86.8324 21.7151C92.5746 22.2417 96.8625 20.4614 99.9217 18.1795C100.649 17.6279 100.724 15.1203 101.301 14.5436C101.878 13.992 103.257 13.3149 103.708 12.7884Z" fill="var(--fill-0, #B0B0B0)"/>
<path id="Vector_10" d="M107.57 16.4241C107.57 16.399 107.57 16.3739 107.57 16.3238C107.093 7.34683 99.6963 0.225474 90.6191 0.225474C87.284 0.225474 84.1747 1.17833 81.5669 2.8333C81.7675 2.73299 81.9681 2.60762 82.1938 2.50732C83.4726 1.95567 84.8267 1.52938 86.2309 1.27863C90.4185 0.726974 95.1326 2.08104 99.0443 5.16529L89.8417 4.08706L100.022 7.67281L85.8046 11.6347L99.8969 10.055L89.4405 19.6838L100.825 12.1111L95.8347 26.6548L103.508 13.6156L103.157 22.2415L105.664 14.393C106.467 16.9506 106.717 19.5585 106.341 21.9657C106.015 23.6457 105.413 25.2255 104.661 26.7049C104.561 26.8804 104.436 27.056 104.335 27.2315C106.241 24.6237 107.319 21.5896 107.57 18.5053C107.57 18.4301 107.57 18.3549 107.595 18.3047C107.595 18.1543 107.62 18.0038 107.62 17.8534C107.62 17.7029 107.62 17.5525 107.62 17.4271C107.62 17.3268 107.62 17.2265 107.62 17.1262C107.595 16.8754 107.57 16.6497 107.57 16.4241Z" fill="var(--fill-0, white)"/>
</g>
</g>
</svg>
