<svg preserveAspectRatio="none" width="100%" height="100%" overflow="visible" style="display: block;" viewBox="0 0 27.0175 11.092" fill="none" xmlns="http://www.w3.org/2000/svg">
<g id="Apple Pay">
<path id="&#60;Compound Path&#62;" d="M4.93279 1.42946C4.77268 1.62684 4.57015 1.78562 4.34025 1.89398C4.11035 2.00234 3.85898 2.0575 3.60483 2.05538C3.57533 1.55141 3.7455 1.0561 4.0785 0.676667C4.41458 0.289349 4.88735 0.0469046 5.398 0C5.41821 0.25715 5.38753 0.515762 5.3077 0.761042C5.22788 1.00632 5.10048 1.23346 4.93279 1.42946ZM5.398 2.15687C4.66212 2.11458 4.03621 2.57133 3.70633 2.57133C3.37646 2.57133 2.8605 2.18225 2.23458 2.19071C1.85397 2.19834 1.48198 2.30539 1.15555 2.50126C0.82911 2.69712 0.55959 2.97497 0.37375 3.30721C-0.412875 4.669 0.17075 6.69054 0.940458 7.79858C1.31262 8.33992 1.78629 8.94892 2.353 8.92354C2.91971 8.89817 3.13117 8.55983 3.80783 8.55983C4.4845 8.55983 4.65367 8.92354 5.27112 8.91508C5.88858 8.90663 6.26921 8.36529 6.64983 7.8155C6.91264 7.42702 7.11777 7.00252 7.25883 6.55521C6.90553 6.40219 6.60453 6.14945 6.3927 5.82795C6.18086 5.50644 6.0674 5.13014 6.06621 4.74513C6.07229 4.40494 6.16378 4.07173 6.33227 3.77613C6.50076 3.48054 6.74084 3.23203 7.03046 3.05346C6.84396 2.79088 6.59994 2.57437 6.31702 2.42045C6.03411 2.26653 5.71977 2.17927 5.398 2.16533M9.62717 0.634375V8.88125H10.9467V6.03925H12.7145C13.0772 6.0596 13.4402 6.00386 13.7801 5.87561C14.12 5.74735 14.4293 5.54942 14.6882 5.29453C14.9471 5.03964 15.1498 4.73341 15.2833 4.39553C15.4168 4.05765 15.4781 3.69559 15.4634 3.33258C15.4803 2.97266 15.4218 2.61318 15.2918 2.27715C15.1617 1.94111 14.963 1.63594 14.7082 1.38115C14.4534 1.12637 14.1482 0.927592 13.8122 0.797542C13.4762 0.667491 13.1167 0.609036 12.7567 0.625916L9.62717 0.634375ZM10.9467 1.70858H12.3846C12.6107 1.67647 12.8411 1.69535 13.059 1.76383C13.2769 1.83232 13.4766 1.94868 13.6437 2.10439C13.8108 2.2601 13.9409 2.45121 14.0245 2.66373C14.1081 2.87624 14.1431 3.10478 14.127 3.33258C14.1429 3.56179 14.1075 3.79164 14.0235 4.00548C13.9395 4.21932 13.8089 4.41178 13.6413 4.56889C13.4737 4.726 13.2731 4.84382 13.0543 4.9138C12.8355 4.98379 12.6038 5.00418 12.3761 4.9735H10.9467V1.70858ZM17.7641 8.88125C18.1423 8.89038 18.516 8.79788 18.8463 8.6134C19.1765 8.42892 19.4513 8.15922 19.6418 7.83242V8.88125H20.826V4.76204C20.826 3.56942 19.8787 2.80817 18.4154 2.80817C16.9521 2.80817 16.0809 3.58633 16.0217 4.65208H17.172C17.2378 4.38898 17.3964 4.1585 17.6187 4.00308C17.8409 3.84766 18.1118 3.77776 18.3815 3.80625C19.1597 3.80625 19.5995 4.17842 19.5995 4.84662V5.29492L18.0009 5.39642C16.5207 5.481 15.7172 6.09 15.7172 7.14729C15.7256 7.39985 15.7868 7.64784 15.8969 7.87531C16.007 8.10277 16.1634 8.30467 16.3563 8.468C16.5491 8.63134 16.774 8.75249 17.0164 8.82366C17.2589 8.89484 17.5136 8.91445 17.7641 8.88125V8.88125ZM18.1024 7.90854C17.4257 7.90854 16.9944 7.57867 16.9944 7.06271C16.9944 6.54675 17.4088 6.21688 18.2039 6.21688L19.6249 6.12383V6.58904C19.6212 6.78032 19.5779 6.96874 19.4978 7.14249C19.4177 7.31623 19.3026 7.47153 19.1596 7.59863C19.0166 7.72573 18.8489 7.82188 18.6669 7.88104C18.485 7.94019 18.2928 7.96108 18.1024 7.94237V7.90854ZM22.4331 11.055C23.6765 11.055 24.2601 10.5814 24.776 9.14346L27.0175 2.88429H25.7234L24.2178 7.74783L22.7122 2.88429H21.3504L23.5157 8.88125L23.3973 9.24496C23.3541 9.49358 23.2205 9.71744 23.0222 9.87356C22.8239 10.0297 22.575 10.107 22.3231 10.0908H21.9425V11.0804C22.1058 11.0921 22.2695 11.0949 22.4331 11.0889V11.055Z" fill="var(--fill-0, black)"/>
</g>
</svg>
