<svg preserveAspectRatio="none" width="100%" height="100%" overflow="visible" style="display: block;" viewBox="0 0 22 7" fill="none" xmlns="http://www.w3.org/2000/svg">
<g id="Frame 126515">
<path id="Vector" d="M8.06667 6.81675L9.18413 0.2199H10.9302L9.84762 6.81675H8.06667Z" fill="var(--fill-0, #3C58BF)"/>
<path id="Vector_2" d="M8.06667 6.81675L9.49841 0.2199H10.9302L9.84762 6.81675H8.06667Z" fill="var(--fill-0, #293688)"/>
<path id="Vector_3" d="M16.1683 0.293194C15.819 0.146597 15.2603 0 14.5619 0C12.8159 0 11.5587 0.91623 11.5587 2.2356C11.5587 3.22513 12.4317 3.73822 13.1302 4.06806C13.8286 4.3979 14.0381 4.6178 14.0381 4.91099C14.0381 5.35078 13.4794 5.57068 12.9905 5.57068C12.2921 5.57068 11.9079 5.46073 11.3143 5.20418L11.0698 5.09424L10.8254 6.59685C11.2444 6.7801 12.0127 6.96335 12.8159 6.96335C14.6667 6.96335 15.8889 6.04712 15.8889 4.65445C15.8889 3.88481 15.4349 3.29843 14.3873 2.82199C13.7587 2.49215 13.3746 2.3089 13.3746 1.97906C13.3746 1.68586 13.6889 1.39267 14.3873 1.39267C14.981 1.39267 15.4 1.50262 15.7143 1.64921L15.8889 1.72251L16.1683 0.293194Z" fill="var(--fill-0, #3C58BF)"/>
<path id="Vector_4" d="M16.1683 0.293194C15.819 0.146597 15.2603 0 14.5619 0C12.8159 0 11.873 0.91623 11.873 2.2356C11.873 3.22513 12.4317 3.73822 13.1302 4.06806C13.8286 4.3979 14.0381 4.6178 14.0381 4.91099C14.0381 5.35078 13.4794 5.57068 12.9905 5.57068C12.2921 5.57068 11.9079 5.46073 11.3143 5.20418L11.0698 5.09424L10.8254 6.59685C11.2444 6.7801 12.0127 6.96335 12.8159 6.96335C14.6667 6.96335 15.8889 6.04712 15.8889 4.65445C15.8889 3.88481 15.4349 3.29843 14.3873 2.82199C13.7587 2.49215 13.3746 2.3089 13.3746 1.97906C13.3746 1.68586 13.6889 1.39267 14.3873 1.39267C14.981 1.39267 15.4 1.50262 15.7143 1.64921L15.8889 1.72251L16.1683 0.293194Z" fill="var(--fill-0, #293688)"/>
<path id="Vector_5" d="M19.1714 0.2199C18.7524 0.2199 18.4381 0.256549 18.2635 0.696339L15.6444 6.81675H17.5302L17.8794 5.71728H20.1143L20.3238 6.81675H22L20.5333 0.2199H19.1714V0.2199ZM18.3683 4.6178C18.473 4.28796 19.0667 2.6754 19.0667 2.6754C19.0667 2.6754 19.2064 2.27225 19.3111 2.01571L19.4159 2.63875C19.4159 2.63875 19.7651 4.28796 19.8349 4.65445H18.3683V4.6178Z" fill="var(--fill-0, #3C58BF)"/>
<path id="Vector_6" d="M19.5905 0.2199C19.1714 0.2199 18.8571 0.256549 18.6825 0.696339L15.6444 6.81675H17.5302L17.8794 5.71728H20.1143L20.3238 6.81675H22L20.5333 0.2199H19.5905V0.2199ZM18.3683 4.6178C18.5079 4.25131 19.0667 2.6754 19.0667 2.6754C19.0667 2.6754 19.2064 2.27225 19.3111 2.01571L19.4159 2.63875C19.4159 2.63875 19.7651 4.28796 19.8349 4.65445H18.3683V4.6178Z" fill="var(--fill-0, #293688)"/>
<path id="Vector_7" d="M4.85397 4.8377L4.67936 3.88482C4.36508 2.78535 3.35238 1.57592 2.23492 0.989538L3.80635 6.85341H5.69206L8.52063 0.256554H6.63492L4.85397 4.8377Z" fill="var(--fill-0, #3C58BF)"/>
<path id="Vector_8" d="M4.85397 4.8377L4.67936 3.88482C4.36508 2.78535 3.35238 1.57592 2.23492 0.989538L3.80635 6.85341H5.69206L8.52063 0.256554H6.98413L4.85397 4.8377Z" fill="var(--fill-0, #293688)"/>
<path id="Vector_9" d="M0 0.2199L0.314286 0.293199C2.54921 0.842937 4.08571 2.23561 4.67936 3.88482L4.05079 0.769638C3.94603 0.329848 3.63175 0.2199 3.24762 0.2199H0Z" fill="var(--fill-0, #FFBC00)"/>
<path id="Vector_10" d="M0 0.2199C2.23492 0.769638 4.08571 2.19896 4.67936 3.84817L4.08571 1.24608C3.98095 0.806287 3.63175 0.549743 3.24762 0.549743L0 0.2199Z" fill="var(--fill-0, #F7981D)"/>
<path id="Vector_11" d="M0 0.2199C2.23492 0.769638 4.08571 2.19896 4.67936 3.84817L4.26032 2.41885C4.15556 1.97906 4.01587 1.53927 3.52698 1.35603L0 0.2199Z" fill="var(--fill-0, #ED7C00)"/>
<path id="Vector_12" d="M6.6 4.6178L5.4127 3.37173L4.85397 4.7644L4.71429 3.84817C4.4 2.74869 3.3873 1.53927 2.26984 0.952884L3.84127 6.81675H5.72698L6.6 4.6178ZM9.84762 6.81675L8.34603 5.20419L8.06667 6.81675H9.84762V6.81675ZM13.8635 4.5445C14.0032 4.6911 14.073 4.80105 14.0381 4.94765C14.0381 5.38744 13.4794 5.60733 12.9905 5.60733C12.2921 5.60733 11.9079 5.49738 11.3143 5.24084L11.0698 5.13089L10.8254 6.63351C11.2444 6.81675 12.0127 7 12.8159 7C13.9333 7 14.8413 6.67016 15.3651 6.08377L13.8635 4.5445ZM15.8889 6.81675H17.5302L17.8794 5.71728H20.1143L20.3238 6.81675H22L21.4063 4.14136L19.3111 2.01571L19.4159 2.6021C19.4159 2.6021 19.7651 4.25131 19.8349 4.6178H18.3683C18.5079 4.25131 19.0667 2.6754 19.0667 2.6754C19.0667 2.6754 19.2063 2.27225 19.3111 2.01571" fill="var(--fill-0, #051244)"/>
</g>
</svg>
