<svg preserveAspectRatio="none" width="100%" height="100%" overflow="visible" style="display: block;" viewBox="0 0 14.177 13.5401" fill="none" xmlns="http://www.w3.org/2000/svg">
<path id="Star 1" d="M6.56723 0.323062C6.78125 -0.107688 7.39572 -0.107687 7.60974 0.323063L9.35763 3.84098C9.44238 4.01156 9.60523 4.12988 9.79365 4.15777L13.6795 4.73302C14.1553 4.80345 14.3452 5.38785 14.0017 5.7245L11.1961 8.47394C11.06 8.60726 10.9978 8.7987 11.0295 8.98652L11.6832 12.86C11.7633 13.3342 11.2661 13.6954 10.8398 13.4727L7.35796 11.6541C7.18913 11.5659 6.98783 11.5659 6.81901 11.6541L3.33715 13.4727C2.91082 13.6954 2.4137 13.3342 2.49374 12.86L3.14745 8.98652C3.17915 8.7987 3.11694 8.60726 2.9809 8.47394L0.17529 5.7245C-0.168242 5.38785 0.021642 4.80345 0.497445 4.73302L4.38331 4.15777C4.57173 4.12988 4.73458 4.01156 4.81933 3.84098L6.56723 0.323062Z" fill="var(--fill-0, #F3BF41)"/>
</svg>
