<svg preserveAspectRatio="none" width="100%" height="100%" overflow="visible" style="display: block;" viewBox="0 0 21.8748 21.8748" fill="none" xmlns="http://www.w3.org/2000/svg">
<path id="Vector" d="M20.8217 14.7063L15.6691 12.3974L15.6549 12.3909C15.3874 12.2765 15.0956 12.2305 14.8058 12.2573C14.5161 12.284 14.2377 12.3826 13.9956 12.544C13.9671 12.5628 13.9397 12.5833 13.9136 12.6052L11.2514 14.8748C9.56485 14.0556 7.8236 12.3274 7.00439 10.6627L9.2772 7.96009C9.29907 7.93275 9.31985 7.9054 9.33954 7.87587C9.49751 7.63448 9.59335 7.35779 9.61854 7.07041C9.64373 6.78302 9.59748 6.49387 9.48392 6.22868V6.21556L7.16845 1.05415C7.01832 0.707724 6.76018 0.419139 6.43256 0.231477C6.10494 0.0438151 5.72541 -0.0328578 5.35063 0.0129037C3.86857 0.207927 2.50817 0.935775 1.52353 2.06051C0.538886 3.18524 -0.00266977 4.62994 9.89695e-06 6.12478C9.89695e-06 14.8092 7.06563 21.8748 15.75 21.8748C17.2448 21.8775 18.6895 21.3359 19.8143 20.3513C20.939 19.3666 21.6669 18.0062 21.8619 16.5242C21.9077 16.1495 21.8312 15.7701 21.6438 15.4425C21.4563 15.1149 21.168 14.8566 20.8217 14.7063ZM15.75 20.1248C12.0382 20.1207 8.47962 18.6444 5.85499 16.0198C3.23036 13.3952 1.75406 9.83657 1.75001 6.12478C1.7459 5.05672 2.13069 4.02368 2.83253 3.21858C3.53438 2.41349 4.50528 1.89138 5.56392 1.74978C5.56349 1.75414 5.56349 1.75854 5.56392 1.7629L7.86079 6.90353L5.60001 9.60947C5.57706 9.63587 5.55622 9.66403 5.53767 9.69368C5.37307 9.94625 5.27652 10.2371 5.25735 10.5379C5.23819 10.8388 5.29707 11.1395 5.42829 11.4109C6.41923 13.4376 8.46126 15.4643 10.5099 16.4542C10.7833 16.5841 11.0857 16.641 11.3876 16.6191C11.6896 16.5973 11.9807 16.4975 12.2325 16.3295C12.2606 16.3105 12.2876 16.2901 12.3134 16.2682L14.9724 13.9998L20.113 16.3021C20.113 16.3021 20.1217 16.3021 20.125 16.3021C19.9851 17.3623 19.4638 18.3351 18.6586 19.0387C17.8533 19.7423 16.8193 20.1284 15.75 20.1248Z" fill="var(--fill-0, white)"/>
</svg>
