<svg preserveAspectRatio="none" width="100%" height="100%" overflow="visible" style="display: block;" viewBox="0 0 22.75 20.9998" fill="none" xmlns="http://www.w3.org/2000/svg">
<path id="Vector" d="M1.75 0.0625H21C21.4476 0.0625 21.8769 0.240173 22.1934 0.556641C22.5098 0.873108 22.6875 1.30245 22.6875 1.75V15.75C22.6875 16.1976 22.5098 16.6269 22.1934 16.9434C21.8769 17.2598 21.4476 17.4375 21 17.4375H14.3545L14.3359 17.4688L12.8398 20.0879C12.6922 20.3459 12.4788 20.5598 12.2217 20.709C11.9644 20.8582 11.6724 20.9375 11.375 20.9375C11.0776 20.9375 10.7856 20.8582 10.5283 20.709C10.2712 20.5598 10.0578 20.3459 9.91016 20.0879L8.41406 17.4688L8.39551 17.4375H1.75C1.30245 17.4375 0.873108 17.2598 0.556641 16.9434C0.240173 16.6269 0.0625003 16.1976 0.0625 15.75V1.75L0.0703125 1.58301C0.1087 1.19676 0.279769 0.833512 0.556641 0.556641C0.873108 0.240173 1.30245 0.0625 1.75 0.0625ZM1.6875 15.8125H8.86719C9.01104 15.8112 9.15341 15.8485 9.27832 15.9199C9.40298 15.9913 9.50629 16.0944 9.57812 16.2188L11.3281 19.2812L11.3828 19.376L11.4365 19.2812L13.1865 16.2188C13.2584 16.0942 13.3625 15.9913 13.4873 15.9199C13.6121 15.8486 13.7537 15.8113 13.8975 15.8125H21.0625V1.6875H1.6875V15.8125ZM6.80664 7.52441C7.04898 7.57269 7.27156 7.69148 7.44629 7.86621C7.62102 8.04094 7.73981 8.26352 7.78809 8.50586C7.83632 8.74833 7.81238 9.00011 7.71777 9.22852C7.62317 9.45691 7.46238 9.65171 7.25684 9.78906C7.05127 9.92641 6.80973 10 6.5625 10C6.23098 10 5.91313 9.86821 5.67871 9.63379C5.44429 9.39937 5.3125 9.08152 5.3125 8.75C5.3125 8.50277 5.38609 8.26123 5.52344 8.05566C5.66079 7.85012 5.85559 7.68933 6.08398 7.59473C6.31239 7.50012 6.56417 7.47618 6.80664 7.52441ZM11.6191 7.52441C11.8615 7.57269 12.0841 7.69148 12.2588 7.86621C12.4335 8.04094 12.5523 8.26352 12.6006 8.50586C12.6488 8.74833 12.6249 9.00011 12.5303 9.22852C12.4357 9.45691 12.2749 9.65171 12.0693 9.78906C11.8638 9.92641 11.6222 10 11.375 10C11.0435 10 10.7256 9.86821 10.4912 9.63379C10.2568 9.39937 10.125 9.08152 10.125 8.75C10.125 8.50277 10.1986 8.26123 10.3359 8.05566C10.4733 7.85012 10.6681 7.68933 10.8965 7.59473C11.1249 7.50012 11.3767 7.47618 11.6191 7.52441ZM16.4316 7.52441C16.674 7.57269 16.8966 7.69148 17.0713 7.86621C17.246 8.04094 17.3648 8.26352 17.4131 8.50586C17.4613 8.74833 17.4374 9.00011 17.3428 9.22852C17.2482 9.45691 17.0874 9.65171 16.8818 9.78906C16.6763 9.92641 16.4347 10 16.1875 10C15.856 10 15.5381 9.86821 15.3037 9.63379C15.0693 9.39937 14.9375 9.08152 14.9375 8.75C14.9375 8.50277 15.0111 8.26123 15.1484 8.05566C15.2858 7.85012 15.4806 7.68933 15.709 7.59473C15.9374 7.50012 16.1892 7.47618 16.4316 7.52441Z" fill="var(--fill-0, white)" stroke="var(--stroke-0, white)" stroke-width="0.125"/>
</svg>
