<svg preserveAspectRatio="none" width="100%" height="100%" overflow="visible" style="display: block;" viewBox="0 0 115 34.8612" fill="none" xmlns="http://www.w3.org/2000/svg">
<g id="Group 1">
<path id="Vector" d="M68.3705 23.075V34.4979H66.0984V23.075H61.7211V20.9072H72.7687V23.075H68.3705Z" fill="var(--fill-0, #909093)"/>
<path id="Vector_2" d="M75.0408 29.1617L77.4171 28.849C77.9382 28.7656 78.105 28.5155 78.105 28.1611C78.105 27.369 77.5839 26.7437 76.354 26.7437C75.3743 26.6812 74.5197 27.4316 74.4571 28.4321C74.4571 28.4321 74.4571 28.4321 74.4571 28.453L72.4144 27.9944C72.5811 26.3893 74.0194 24.9511 76.3123 24.9511C79.168 24.9511 80.252 26.5769 80.252 28.4321V33.0805C80.252 33.5807 80.2937 34.081 80.3562 34.5813H78.3134C78.23 34.1852 78.2092 33.7892 78.2092 33.3931C77.5838 34.3312 76.4999 34.9148 75.3535 34.8523C73.7484 34.9773 72.3518 33.7684 72.2268 32.1842C72.2268 32.1216 72.2268 32.0799 72.2268 32.0382C72.2685 30.3081 73.4775 29.391 75.0408 29.1617ZM78.105 30.6417V30.1831L75.687 30.5374C74.9991 30.6417 74.4571 31.0377 74.4571 31.809C74.4571 32.4968 74.9991 33.0388 75.687 33.0388C75.7287 33.0388 75.7704 33.0388 75.7912 33.0388C77.0627 33.0596 78.105 32.4551 78.105 30.6417Z" fill="var(--fill-0, #909093)"/>
<path id="Vector_3" d="M82.9409 34.4979V25.1595H85.067V26.3477C85.6507 25.4305 86.6721 24.8677 87.7768 24.8885C88.9441 24.826 90.0489 25.4722 90.5492 26.5353C91.1537 25.4513 92.321 24.8052 93.5508 24.8885C95.2392 24.8885 96.8234 25.9725 96.8234 28.453V34.4979H94.6764V28.8282C94.6764 27.7234 94.1345 26.9105 92.9046 26.9105C91.8415 26.9105 90.9661 27.7859 90.9661 28.849C90.9661 28.8907 90.9661 28.9116 90.9661 28.9532V34.4979H88.7982V28.849C88.7982 27.7651 88.2771 26.9313 87.0264 26.9313C85.9842 26.9105 85.1087 27.7651 85.0879 28.8073C85.0879 28.8699 85.0879 28.9116 85.0879 28.9741V34.5188L82.9409 34.4979Z" fill="var(--fill-0, #909093)"/>
<path id="Vector_4" d="M99.5541 34.4979V25.1595H101.68V26.3477C102.264 25.4305 103.285 24.8677 104.39 24.8885C105.557 24.826 106.662 25.4722 107.162 26.5353C107.767 25.4513 108.913 24.8052 110.143 24.8885C111.832 24.8885 113.416 25.9725 113.416 28.453V34.4979H111.331V28.8282C111.436 27.911 110.81 27.0564 109.872 26.9105C109.768 26.8896 109.643 26.8896 109.56 26.8896C108.496 26.8896 107.621 27.7651 107.621 28.8282C107.621 28.8699 107.621 28.8907 107.621 28.9324V34.4771H105.474V28.8282C105.578 27.911 104.953 27.0564 104.015 26.9105C103.911 26.8896 103.786 26.8896 103.702 26.8896C102.66 26.8688 101.784 27.7234 101.764 28.7656C101.764 28.8282 101.764 28.8699 101.764 28.9324V34.4771L99.5541 34.4979Z" fill="var(--fill-0, #909093)"/>
<path id="Vector_5" d="M73.1022 9.60939C73.1022 9.46347 73.1022 9.29672 73.1022 9.12996C73.1022 6.52438 71.518 4.77342 69.1209 4.77342C67.1407 4.69004 65.4106 6.17002 65.1813 8.15026C62.9926 8.25448 61.7211 9.71361 61.7211 12.1733V14.8831H63.8681V12.5276C63.8681 11.3186 64.2641 10.4849 65.223 10.3598C65.5982 12.1941 67.2449 13.4865 69.1001 13.3823C70.3716 13.4448 71.5597 12.8612 72.3101 11.8398H113.395V3.83541H111.248V9.63023L73.1022 9.60939ZM70.9344 9.08827C70.9344 10.3389 70.2465 11.1727 69.1209 11.1727C68.0995 11.1727 67.2449 10.3598 67.2449 9.31756C67.2449 9.23418 67.2449 9.17165 67.2657 9.08827C67.2657 7.81675 67.9953 6.96211 69.1209 6.96211C70.2257 6.96211 70.9344 7.81675 70.9344 9.08827Z" fill="var(--fill-0, #909093)"/>
<g id="Group">
<path id="Vector_6" d="M29.662 14.9873L28.8282 11.6939C28.2445 11.8398 27.64 11.944 27.0355 11.9648C26.4102 11.9023 25.764 11.8398 25.1595 11.6939L24.284 14.9456C25.2012 15.2166 26.1601 15.3417 27.1189 15.3417C27.9735 15.3417 28.8282 15.2374 29.662 14.9873Z" fill="var(--fill-0, #909093)"/>
<path id="Vector_7" d="M31.934 24.68C29.7662 26.2851 28.3279 27.098 26.9313 27.098C23.9714 27.098 21.6576 24.6175 21.6576 24.6175L20.8238 27.8276C22.5748 29.1825 24.7009 29.9746 26.9313 30.0788C28.7239 30.0788 30.4957 29.2867 32.8512 27.6817L32.0591 24.5341L31.934 24.68Z" fill="var(--fill-0, #909093)"/>
<path id="Vector_8" d="M51.6531 11.0268L48.5264 7.9001L48.4639 7.83757C47.3799 6.92041 46.025 6.42013 44.6076 6.33676C44.42 6.33676 41.1891 5.94071 38.7919 7.27476L34.4979 9.63021L35.29 12.7152L40.2302 10.0054C41.5643 9.38008 43.0234 9.17163 44.4825 9.40092C45.1704 9.46346 45.8166 9.69274 46.3794 10.0888L48.6306 12.34C45.9625 13.2363 44.0031 14.9456 40.2302 18.3641L37.437 20.8446L38.3125 24.1589L42.3355 20.7404C45.7124 17.6554 48.5889 15.2374 50.1731 15.2374C50.3607 15.2166 50.5483 15.2374 50.7359 15.3C50.7776 15.8002 50.7151 16.3005 50.59 16.8008C50.3607 17.4261 50.1106 18.0306 49.8188 18.6143L48.2971 22.0536L48.0261 22.5956C45.8583 26.9938 45.3163 28.7031 43.0234 30.4957C42.6274 30.8084 42.1896 31.0168 41.7102 31.1836L41.5226 31.2461C40.9181 31.4129 40.2928 31.4129 39.7091 31.2461C39.4173 31.1419 39.188 31.0168 38.9795 30.8292C38.5835 30.4957 38.2917 29.9954 38.2083 29.4743L32.1008 5.48213C31.6631 3.73118 30.7876 0.541945 25.8682 0.354343H20.8655C20.136 0.333499 19.4689 0.854612 19.2813 1.56333C19.0937 2.27205 19.4064 3.02246 20.0526 3.37682C20.4278 3.62695 20.7405 3.93962 20.9697 4.31483C21.5325 5.23199 21.7202 6.33676 21.5117 7.39983L21.3658 7.96264L15.7169 29.3909C15.6127 29.9121 15.3417 30.3706 14.9456 30.7459C14.5287 31.0794 14.0076 31.2878 13.4657 31.2878C12.5068 31.3295 11.5479 30.996 10.8184 30.3915C8.54632 28.6197 8.00436 26.8896 5.81567 22.5122L4.02302 18.5517C3.71035 17.9681 3.46022 17.3636 3.25177 16.7382C3.14755 16.238 3.08501 15.7585 3.10586 15.2374C3.29346 15.154 3.48106 15.1332 3.66866 15.1749C5.60722 15.4459 8.08774 17.5929 11.5063 20.6779L15.5293 24.0964L16.3839 20.8029L13.549 18.385C9.81784 15.0081 7.79591 13.2572 5.14864 12.34L7.39986 10.0888C7.96267 9.69274 8.60885 9.46346 9.31757 9.40092C10.7559 9.15079 12.2567 9.35923 13.549 10.0054L18.4892 12.7152L19.2813 9.63021L14.9873 7.27476C12.6319 5.91986 9.3801 6.29507 9.17166 6.3576C7.75422 6.42013 6.39931 6.94125 5.31539 7.85842L5.25286 7.92095L2.12616 11.0476C0.854634 12.1524 0.0833787 13.7366 0 15.425C0.0833787 17.0509 0.541962 18.6143 1.3549 20.0317L3.1267 24.013C5.37793 28.6197 6.12833 30.725 8.96321 32.9554C9.797 33.6224 10.7767 34.081 11.8189 34.3103C12.9445 34.5604 14.1535 34.4979 15.2375 34.1644C16.509 33.7266 17.5721 32.8303 18.2182 31.6422C18.4684 31.2044 18.6351 30.7458 18.7602 30.2873L24.5342 8.23362C24.5342 8.17109 24.5342 8.1294 24.5342 8.08771C24.8469 6.52436 24.6384 4.89848 23.9714 3.48104H25.6598C26.5978 3.39766 27.515 3.75202 28.2028 4.3982C28.6197 4.96101 28.8907 5.62804 28.9949 6.33676L35.1024 30.2247C35.2067 30.725 35.4151 31.2044 35.6444 31.663C36.2697 32.8512 37.3328 33.7892 38.6252 34.2061C39.2714 34.4145 39.9384 34.5187 40.5846 34.5187C41.064 34.5187 41.5434 34.4562 42.0229 34.3728C43.0651 34.1227 44.0448 33.6641 44.8994 33.0179C47.7135 30.7875 48.4847 28.6614 50.7359 24.0756L52.5077 20.0942C53.3207 18.6976 53.7793 17.1134 53.8626 15.4876C53.7584 13.7366 52.9663 12.1524 51.6531 11.0268Z" fill="var(--fill-0, #909093)"/>
</g>
<path id="Vector_9" d="M110.706 2.54305C111.408 2.54305 111.978 1.97377 111.978 1.27153C111.978 0.569282 111.408 0 110.706 0C110.004 0 109.435 0.569282 109.435 1.27153C109.435 1.97377 110.004 2.54305 110.706 2.54305Z" fill="var(--fill-0, #909093)"/>
<path id="Vector_10" d="M113.729 2.54305C114.431 2.54305 115 1.97377 115 1.27153C115 0.569282 114.431 0 113.729 0C113.026 0 112.457 0.569282 112.457 1.27153C112.457 1.97377 113.026 2.54305 113.729 2.54305Z" fill="var(--fill-0, #909093)"/>
</g>
</svg>
