<svg preserveAspectRatio="none" width="100%" height="100%" overflow="visible" style="display: block;" viewBox="0 0 23.1579 9.50741" fill="none" xmlns="http://www.w3.org/2000/svg">
<g id="Apple Pay">
<path id="&#60;Compound Path&#62;" d="M4.22811 1.22525C4.09087 1.39444 3.91727 1.53053 3.72021 1.62341C3.52315 1.71629 3.3077 1.76357 3.08986 1.76175C3.06457 1.32978 3.21043 0.905225 3.49586 0.58C3.78393 0.248014 4.18915 0.0402039 4.62686 0C4.64418 0.220414 4.61788 0.442082 4.54946 0.652322C4.48104 0.862562 4.37184 1.05725 4.22811 1.22525ZM4.62686 1.84875C3.99611 1.8125 3.45961 2.204 3.17686 2.204C2.89411 2.204 2.45186 1.8705 1.91536 1.87775C1.58912 1.88429 1.27027 1.97605 0.990467 2.14393C0.710666 2.31181 0.479648 2.54997 0.320357 2.83475C-0.353893 4.002 0.146357 5.73475 0.806107 6.6845C1.12511 7.1485 1.53111 7.6705 2.01686 7.64875C2.50261 7.627 2.68386 7.337 3.26386 7.337C3.84386 7.337 3.98886 7.64875 4.51811 7.6415C5.04736 7.63425 5.37361 7.17025 5.69986 6.699C5.92512 6.36602 6.10095 6.00216 6.22186 5.61875C5.91903 5.48759 5.66102 5.27096 5.47945 4.99538C5.29788 4.71981 5.20063 4.39726 5.19961 4.06725C5.20482 3.77566 5.28324 3.49005 5.42766 3.23669C5.57208 2.98332 5.77786 2.77031 6.02611 2.61725C5.86625 2.39218 5.65709 2.2066 5.41459 2.07467C5.17209 1.94274 4.90266 1.86795 4.62686 1.856M8.25186 0.54375V7.6125H9.38286V5.1765H10.8981C11.209 5.19394 11.5201 5.14617 11.8115 5.03623C12.1028 4.9263 12.368 4.75665 12.5899 4.53817C12.8118 4.31969 12.9855 4.05721 13.0999 3.7676C13.2144 3.47799 13.267 3.16764 13.2544 2.8565C13.2688 2.54799 13.2187 2.23987 13.1072 1.95184C12.9958 1.66381 12.8254 1.40223 12.607 1.18385C12.3886 0.965461 12.127 0.795079 11.839 0.683607C11.551 0.572135 11.2429 0.522031 10.9344 0.5365L8.25186 0.54375ZM9.38286 1.4645H10.6154C10.8092 1.43697 11.0067 1.45315 11.1934 1.51186C11.3802 1.57056 11.5514 1.6703 11.6946 1.80376C11.8378 1.93723 11.9493 2.10104 12.021 2.2832C12.0927 2.46535 12.1227 2.66124 12.1089 2.8565C12.1225 3.05296 12.0922 3.24998 12.0201 3.43327C11.9481 3.61656 11.8362 3.78153 11.6925 3.91619C11.5488 4.05086 11.377 4.15185 11.1894 4.21183C11.0018 4.27182 10.8033 4.2893 10.6081 4.263H9.38286V1.4645ZM15.2264 7.6125C15.5505 7.62032 15.8709 7.54104 16.1539 7.38292C16.437 7.22479 16.6725 6.99362 16.8359 6.7135V7.6125H17.8509V4.08175C17.8509 3.0595 17.0389 2.407 15.7846 2.407C14.5304 2.407 13.7836 3.074 13.7329 3.9875H14.7189C14.7752 3.76198 14.9112 3.56443 15.1017 3.43121C15.2922 3.29799 15.5244 3.23808 15.7556 3.2625C16.4226 3.2625 16.7996 3.5815 16.7996 4.15425V4.5385L15.4294 4.6255C14.1606 4.698 13.4719 5.22 13.4719 6.12625C13.4791 6.34273 13.5316 6.55529 13.6259 6.75026C13.7203 6.94523 13.8544 7.11829 14.0197 7.25829C14.1849 7.39829 14.3777 7.50214 14.5855 7.56314C14.7933 7.62415 15.0116 7.64096 15.2264 7.6125V7.6125ZM15.5164 6.77875C14.9364 6.77875 14.5666 6.496 14.5666 6.05375C14.5666 5.6115 14.9219 5.32875 15.6034 5.32875L16.8214 5.249V5.64775C16.8181 5.8117 16.781 5.97321 16.7124 6.12213C16.6438 6.27106 16.5451 6.40417 16.4225 6.51311C16.3 6.62206 16.1562 6.70447 16.0002 6.75517C15.8443 6.80588 15.6795 6.82378 15.5164 6.80775V6.77875ZM19.2284 9.47575C20.2941 9.47575 20.7944 9.06975 21.2366 7.83725L23.1579 2.47225H22.0486L20.7581 6.641L19.4676 2.47225H18.3004L20.1564 7.6125L20.0549 7.92425C20.0178 8.13735 19.9032 8.32924 19.7333 8.46305C19.5634 8.59687 19.35 8.66318 19.1341 8.64925H18.8079V9.4975C18.9478 9.50752 19.0882 9.50994 19.2284 9.50475V9.47575Z" fill="var(--fill-0, black)"/>
</g>
</svg>
