<svg width="253" height="149" viewBox="0 0 253 149" fill="none" xmlns="http://www.w3.org/2000/svg">
<g clip-path="url(#clip0_28_2270)">
<path d="M181 39.2886C204.881 26.178 228.781 13.0962 252.672 0C242.196 17.024 233.08 34.9564 226.527 53.8681C220.531 71.1444 216.584 89.2432 215.999 107.561C215.519 117.361 216.365 127.181 217.773 136.882C206.736 120.78 200.559 101.379 200.464 81.8487C200.297 67.2213 203.478 52.5701 209.675 39.3168C200.116 39.2741 190.553 39.3406 181 39.2886Z" fill="#909093"/>
</g>
<g clip-path="url(#clip1_28_2270)">
<path d="M128.7 3.53526C129.827 2.57945 129.238 0.425285 130.954 0.0591254C132.148 -0.268992 132.837 0.838994 133.432 1.6474C133.028 1.80432 132.628 1.97076 132.234 2.14196C132.015 1.84237 131.582 1.23844 131.363 0.934101C130.983 1.6046 130.736 2.33692 130.588 3.09302C131.463 3.10253 132.348 3.1168 133.227 3.13582C133.223 3.41638 133.213 3.97753 133.208 4.25809C131.72 4.25809 130.236 4.25805 128.748 4.2533C128.738 4.0726 128.715 3.71595 128.7 3.53526Z" fill="#909093"/>
<path d="M26.3784 4.62939C26.445 3.58324 26.483 2.0758 27.805 1.84279C28.8702 1.47663 29.7499 2.23748 30.2159 3.12197C29.9354 3.43582 29.6263 3.72588 29.3267 4.02071C29.0461 3.6831 28.4897 3.01735 28.2092 2.67973C27.9143 3.35023 27.6528 4.03973 27.4245 4.73401C28.5658 4.90995 30.3396 4.29652 30.4204 6.00368C28.8607 6.08927 27.3009 6.07976 25.7412 6.08927C25.6746 5.86577 25.5462 5.42353 25.4844 5.20478C25.7079 5.06212 26.1549 4.77205 26.3784 4.62939Z" fill="#909093"/>
<path d="M7.49324 5.56618C8.2208 5.55667 8.94836 5.55667 9.67593 5.55667C9.6997 10.4356 9.69019 15.3146 9.69019 20.1888C9.84712 22.3905 8.05912 24.3735 5.98104 24.849C3.28477 25.6051 0.189062 23.4509 0.0416468 20.6405C-0.0439489 18.6053 0.0273762 16.5652 0.0368868 14.53C0.773962 14.5347 1.51579 14.5442 2.25762 14.5585C2.30993 16.5367 2.15776 18.5292 2.33371 20.5074C2.55721 22.2098 4.77795 23.313 6.21406 22.2574C7.284 21.6487 7.54079 20.3314 7.49324 19.1949C7.49324 14.6536 7.46946 10.1075 7.49324 5.56618Z" fill="#909093"/>
<path d="M31.9985 5.53784C32.7593 5.54735 33.5202 5.55683 34.2858 5.57109C34.2905 9.61791 34.3238 13.6647 34.281 17.7115C34.3571 19.4947 32.9353 21.14 31.1378 21.2542C28.6317 21.4016 26.1114 21.2827 23.6006 21.2827C23.6006 20.5171 23.6006 19.7467 23.6053 18.9811C25.9402 18.9098 28.2846 19.0239 30.6194 18.9336C31.3137 19.0049 32.027 18.4723 31.9367 17.7352C32.0413 13.6694 31.9034 9.60364 31.9985 5.53784Z" fill="#909093"/>
<path d="M36.4675 5.56509C37.2046 5.55558 37.9465 5.55082 38.6836 5.55558C38.9355 10.7912 38.7691 16.0411 38.6836 21.2814C37.9417 21.2862 37.1998 21.2862 36.458 21.2814C36.4675 16.0411 36.4485 10.8054 36.4675 5.56509Z" fill="#909093"/>
<path d="M88.2919 5.62852C89.0052 5.53816 89.7234 5.52865 90.4415 5.50012C90.508 7.83974 90.4745 10.1794 90.4697 12.5237C92.2151 11.3634 94.1031 9.98914 96.3236 10.2222C98.3635 10.2554 100.066 12.0482 100.347 14.0074C100.537 15.5529 100.561 17.1364 100.323 18.6771C100.014 20.3034 98.3635 21.3353 96.7753 21.2973C94.2361 21.3544 91.6968 21.283 89.162 21.3116C87.089 21.283 84.9584 21.5398 82.9708 20.798C81.9057 21.1832 80.7834 21.3829 79.6514 21.3258C73.9212 21.2497 68.1818 21.4067 62.4564 21.2497C62.3089 21.1499 62.0188 20.9502 61.8761 20.8503C61.4292 19.262 61.7762 17.5311 61.6956 15.8857C61.6049 14.8253 62.0091 13.3797 60.9013 12.7282C60.0312 11.9959 58.595 12.8899 58.6139 13.9456C58.4761 16.9557 58.7042 19.9706 58.5333 22.9759C58.5426 24.122 57.0874 23.8794 56.3265 23.9936C53.9775 23.9745 51.6095 24.1362 49.2745 23.8461C46.3834 23.4515 44.4382 20.0324 45.5892 17.3456C46.055 15.7288 47.5437 14.811 48.9082 14.0264C49.3124 14.6684 49.7122 15.3151 50.1164 15.9618C49.2318 16.6133 48.0619 17.1031 47.7242 18.2491C47.1157 19.7803 48.4423 21.5255 50.0213 21.6111C52.0898 21.7348 54.1628 21.6254 56.2314 21.6539C56.3027 18.9291 56.1222 16.1996 56.3124 13.4795C56.5405 10.5931 60.4685 9.12368 62.5705 11.0686C64.8579 13.0183 63.802 16.3518 64.0112 18.9577C69.884 18.9149 75.7617 19.048 81.6296 18.8863C81.7106 16.1663 81.5442 13.4463 81.7058 10.7357C82.3857 10.4837 83.1227 10.517 83.8171 10.7072C84.15 13.4272 83.8791 16.1806 83.9646 18.9149C85.3533 18.9577 86.7513 18.9624 88.1444 18.9624C88.2206 14.521 87.9163 10.0462 88.2919 5.62852ZM90.4842 15.4102C90.4794 16.5943 90.4745 17.7736 90.4745 18.9577C92.7478 18.9101 95.0304 19.0718 97.3033 18.8816C98.4349 18.5915 98.0307 17.1792 98.1451 16.3232C98.2354 14.8824 98.0879 12.8233 96.295 12.5475C94.0362 12.4191 92.1723 14.1025 90.4842 15.4102Z" fill="#909093"/>
<path d="M129.815 5.53751C130.543 5.63737 131.465 5.31876 132.069 5.78003C132.202 10.9443 132.107 16.1134 132.107 21.2777C131.351 21.2919 130.59 21.3014 129.839 21.3061C129.724 16.0515 129.772 10.7921 129.815 5.53751Z" fill="#909093"/>
<path d="M151.257 5.60334C152.018 5.5653 152.774 5.53201 153.54 5.50348C153.668 9.97823 153.516 14.453 153.626 18.9277C160.236 18.9563 166.85 19.0181 173.46 18.8945C173.522 16.0793 173.374 13.2594 173.574 10.449C174.297 10.6059 175.196 10.3729 175.795 10.9293C175.899 13.5875 175.79 16.2553 175.828 18.9182C177.74 18.9753 179.651 18.9705 181.568 18.923C181.625 16.1697 181.558 13.4163 181.611 10.663C182.381 10.6773 183.151 10.701 183.926 10.7248C183.884 13.4068 184.002 16.0888 183.884 18.7661C183.807 20.2402 182.395 21.372 180.954 21.2959C178.9 21.3387 176.789 21.5004 174.825 20.7966C173.878 21.1057 172.904 21.3672 171.905 21.3197C166.508 21.3006 161.115 21.3054 155.723 21.3197C154.657 21.3577 153.626 21.0962 152.617 20.8013C149.631 21.7619 146.435 21.1627 143.359 21.2911C140.254 21.3149 137.914 17.9006 138.884 14.9856C139.321 13.2166 140.895 12.1467 142.422 11.3668C142.774 12.042 143.126 12.7173 143.478 13.3973C142.56 14.044 141.224 14.5671 141.091 15.8463C140.686 17.2967 141.865 18.9325 143.378 18.9277C145.988 19.0133 148.599 18.9468 151.215 18.9277C151.31 14.4863 151.229 10.0448 151.257 5.60334Z" fill="#909093"/>
<path d="M94.0015 6.09802C94.6911 6.11229 95.3854 6.13131 96.0749 6.15984C96.0842 6.90643 96.0842 7.65777 96.0794 8.40911C95.3854 8.42813 94.6959 8.43764 94.0064 8.44715C93.9871 7.66252 93.987 6.87789 94.0015 6.09802Z" fill="#909093"/>
<path d="M173.551 6.20763C174.264 6.20288 174.977 6.19812 175.695 6.19812C175.667 6.94946 175.638 7.7008 175.61 8.45214C174.93 8.43788 174.259 8.42361 173.584 8.40459C173.565 7.67227 173.556 6.93995 173.551 6.20763Z" fill="#909093"/>
<path d="M26.7563 7.18614C27.4982 7.16712 28.24 7.15285 28.9866 7.14334C29.1055 10.7716 29.0484 14.4047 29.0199 18.033C28.259 18.0378 27.5029 18.0283 26.7468 18.0188C26.7516 14.4095 26.7373 10.7954 26.7563 7.18614Z" fill="#909093"/>
<path d="M145.3 12.2327C145.262 11.0391 145.633 9.30818 147.165 9.37951C148.391 9.16552 148.905 10.459 149.314 11.3435C148.453 11.2198 147.64 10.9202 146.808 10.7062C146.632 11.2436 146.508 11.7952 146.384 12.3421C147.488 12.537 149.342 11.8808 149.314 13.5832C147.74 13.626 146.17 13.6165 144.597 13.626C144.558 13.4025 144.487 12.965 144.449 12.7463C144.658 12.6179 145.086 12.3611 145.3 12.2327Z" fill="#909093"/>
<path d="M15.1174 10.4207C17.7471 9.49812 20.9332 11.2338 21.3564 14.0347C21.5466 16.3981 21.4325 18.7805 21.4325 21.1534C21.5086 23.241 19.8442 25.1717 17.8137 25.5378C16.6106 25.69 15.3932 25.6187 14.1901 25.6187C14.1806 24.8626 14.1711 24.0969 14.271 23.3456C15.436 23.2125 16.6154 23.3266 17.7757 23.1554C18.5222 22.8035 18.8741 22.0094 19.3354 21.3769C17.2811 21.2628 14.8464 21.6337 13.3009 19.9456C10.7853 17.2683 11.3274 11.6808 15.1174 10.4207ZM15.6072 12.746C13.8478 13.5687 14.0047 15.8893 14.3851 17.4728C15.1555 19.3844 17.4571 18.9279 19.0929 18.9755C19.0596 17.3682 19.2118 15.7466 18.9883 14.1488C18.5365 12.8459 16.8674 12.0422 15.6072 12.746Z" fill="#909093"/>
<path d="M102.77 13.5689C103.607 10.2639 108.258 9.04657 110.626 11.4718C112.828 13.3216 111.948 16.4506 112.091 18.9519C116.518 18.9376 120.945 19.0042 125.372 18.9139C125.491 16.1891 125.306 13.4595 125.467 10.7395C126.152 10.554 126.87 10.5825 127.579 10.5588C127.626 13.2883 127.66 16.0226 127.593 18.7569C127.645 20.2073 126.238 21.3296 124.849 21.2868C120.655 21.3438 116.451 21.301 112.252 21.2963C111.953 22.5707 111.501 23.8879 110.384 24.6821C108.824 26.0468 106.617 25.5618 104.73 25.5618C104.815 24.7914 104.91 24.0306 105.01 23.265C106.132 23.2412 107.278 23.3601 108.396 23.1651C109.195 22.8703 109.556 22.0096 110.036 21.3676C108.011 21.2535 105.605 21.6577 104.073 19.9886C102.228 18.4003 102.495 15.7325 102.77 13.5689ZM106.18 12.8175C104.511 13.721 104.725 16.0084 105.134 17.5586C105.942 19.4037 108.201 18.9091 109.813 18.9757C109.794 17.4492 109.889 15.9228 109.746 14.4011C109.461 12.8936 107.492 11.9568 106.18 12.8175Z" fill="#909093"/>
<path d="M81.7239 23.1468C82.4372 23.1515 83.1505 23.1658 83.8683 23.1848C83.8493 23.8933 83.8445 24.6066 83.7687 25.3152C83.0933 25.4103 82.4086 25.415 81.7284 25.4246C81.7191 24.6637 81.7191 23.9029 81.7239 23.1468Z" fill="#909093"/>
<path d="M124.074 23.2587C124.773 23.1541 125.486 23.1398 126.199 23.1065C126.19 23.8436 126.19 24.5807 126.109 25.313C125.619 25.4176 125.12 25.4889 124.621 25.4319C123.579 25.332 124.145 23.9577 124.074 23.2587Z" fill="#909093"/>
<path d="M180.293 23.1555C181.02 23.165 181.753 23.1793 182.485 23.2078C182.485 23.9116 182.48 24.6154 182.48 25.3192C181.753 25.3239 181.025 25.3239 180.302 25.3239C180.293 24.6011 180.288 23.8783 180.293 23.1555Z" fill="#909093"/>
<path d="M50.0332 25.9654C50.761 25.9654 51.4836 25.9749 52.2114 25.9844C52.2114 26.7025 52.2114 27.4205 52.2065 28.1433C51.4836 28.1386 50.761 28.1338 50.038 28.1243C50.0332 27.4063 50.0332 26.6834 50.0332 25.9654Z" fill="#909093"/>
<path d="M53.3066 25.9894C54.0437 25.9799 54.7856 25.9752 55.5272 25.9752C55.5082 26.6742 55.5034 27.3732 55.4369 28.0723C54.7332 28.1531 54.0248 28.1388 53.3208 28.1579C53.3066 27.435 53.3066 26.7122 53.3066 25.9894Z" fill="#909093"/>
<path d="M0.0078125 38.8721C16.4565 38.891 32.9051 38.8624 49.3539 38.8862C49.3395 43.7793 49.3539 48.6729 49.3491 53.566C38.7923 53.5753 28.2401 53.5563 17.6881 53.5753C17.7023 59.7669 17.6881 65.9584 17.6928 72.1496C27.0751 72.1545 36.4526 72.1496 45.835 72.1496C45.9539 76.6293 45.7637 81.1041 45.9491 85.5834C36.5287 85.6169 27.1084 85.5931 17.6928 85.5979C17.7023 96.8346 17.6786 108.076 17.7023 119.313C11.8058 119.327 5.90916 119.308 0.0125652 119.327C0.0173205 92.5072 0.0220785 65.6872 0.0078125 38.8721Z" fill="#909093"/>
<path d="M71.5998 38.8855C78.2097 38.8661 84.8245 38.8758 91.4343 38.8806C101.249 65.691 111.05 92.5061 120.879 119.317C114.426 119.312 107.973 119.326 101.52 119.307C99.8275 113.953 98.0725 108.613 96.3606 103.263C85.9609 103.258 75.5609 103.268 65.1612 103.258C63.2921 108.598 61.5472 113.981 59.6781 119.322C53.5772 119.302 47.4759 119.336 41.3701 119.302C51.4941 92.5158 61.5234 65.691 71.5998 38.8855ZM69.7783 88.9969C77.0874 89.0255 84.3965 89.0017 91.7003 89.0065C89.3847 81.9542 87.1163 74.8832 84.81 67.8309C83.4499 63.6224 82.0281 59.4284 80.9771 55.1293C77.5057 66.5042 73.616 77.7409 69.7783 88.9969Z" fill="#909093"/>
<path d="M126.534 38.8762C134.361 38.8762 142.188 38.8762 150.021 38.8762C156.031 38.919 162.161 38.5055 168.02 40.1553C173.973 41.6533 179.732 45.3245 182.285 51.0926C185.357 58.1256 184.392 67.1942 178.9 72.7913C176.807 74.9881 174.068 76.4529 171.182 77.323C175.457 78.3595 179.665 80.3567 182.471 83.8474C186.484 88.6644 187.126 95.4456 185.881 101.395C184.753 106.977 181.149 111.937 176.27 114.842C170.701 118.238 164.049 119.26 157.619 119.312C147.258 119.322 136.896 119.317 126.534 119.312C126.539 92.5021 126.548 65.6866 126.534 38.8762ZM144.219 52.7569C144.233 59.0529 144.224 65.3493 144.224 71.6452C148.428 71.6025 152.641 71.7879 156.835 71.5312C160.245 71.2934 163.977 69.7431 165.299 66.3479C166.408 63.3045 166.498 59.6143 164.743 56.7897C162.803 53.8414 159.07 52.8472 155.732 52.7666C151.894 52.7332 148.056 52.7666 144.219 52.7569ZM144.228 83.7951C144.224 90.9994 144.224 98.2085 144.224 105.417C148.703 105.327 153.197 105.617 157.662 105.232C161.224 104.956 164.933 103.111 166.35 99.6589C167.729 96.1113 167.629 91.8839 165.808 88.5121C163.996 85.2978 160.168 84.0042 156.673 83.8664C152.526 83.6951 148.375 83.8378 144.228 83.7951Z" fill="#909093"/>
<path d="M10.8588 132.085C12.7847 131.443 13.7073 134.634 11.634 135.034C9.76512 135.557 9.03756 132.494 10.8588 132.085Z" fill="#909093"/>
<path d="M56.4268 132.466C57.2497 132.457 58.0673 132.452 58.8902 132.448C58.8902 134.117 58.8947 135.781 58.8568 137.45C60.9157 136.242 64.0401 136.366 65.3051 138.639C66.7458 141.421 66.5604 145.581 63.7689 147.474C61.577 148.934 58.8044 148.344 56.4412 147.693C56.4316 142.619 56.4505 137.541 56.4268 132.466ZM58.8947 139.129C58.9995 141.502 58.6239 143.97 59.0804 146.295C60.445 146.651 62.1996 146.518 62.975 145.163C63.8737 143.499 63.9212 141.24 62.8847 139.628C61.9574 138.292 60.1931 138.634 58.8947 139.129Z" fill="#909093"/>
<path d="M97.8154 132.457C98.6141 132.457 99.4129 132.452 100.221 132.457C100.226 134.14 100.231 135.828 100.202 137.512C101.591 136.865 103.16 136.399 104.687 136.851C106.061 137.198 106.907 138.615 106.907 139.98C106.993 142.714 106.898 145.449 106.941 148.183C106.142 148.178 105.348 148.178 104.553 148.183C104.492 145.453 104.73 142.705 104.435 139.989C104.007 138.102 101.534 138.463 100.307 139.305C100.093 142.253 100.283 145.225 100.226 148.183C99.4177 148.178 98.6141 148.178 97.8105 148.178C97.8295 142.938 97.8198 137.697 97.8154 132.457Z" fill="#909093"/>
<path d="M119.224 132.466C120.042 132.456 120.864 132.452 121.692 132.452C121.687 134.121 121.696 135.79 121.659 137.464C123.256 136.598 125.358 136.289 126.932 137.373C128.663 138.577 129.063 140.878 128.968 142.852C128.924 144.868 127.878 146.955 125.986 147.816C123.841 148.843 121.402 148.268 119.228 147.674C119.233 142.604 119.238 137.535 119.224 132.466ZM121.696 139.119C121.677 141.525 121.677 143.931 121.701 146.337C122.919 146.39 124.383 146.727 125.33 145.719C126.747 144.193 126.709 141.696 125.881 139.894C125.044 138.329 123.085 138.558 121.696 139.119Z" fill="#909093"/>
<path d="M130.682 132.508C131.424 131.591 133.202 132.033 133.288 133.264C133.583 134.472 132.09 135.557 131.058 134.839C130.187 134.444 129.945 133.131 130.682 132.508Z" fill="#909093"/>
<path d="M174.789 132.452C175.593 132.456 176.392 132.461 177.2 132.475C177.2 135.528 177.181 138.586 177.214 141.644C178.512 140.032 179.796 138.401 181.128 136.808C182.022 136.812 182.916 136.822 183.814 136.836C182.374 138.524 180.99 140.26 179.539 141.939C180.652 143.37 181.765 144.806 182.897 146.228C183.158 146.285 183.681 146.404 183.943 146.461C183.933 146.932 183.914 147.869 183.905 148.334C182.925 148.206 181.779 148.325 181.042 147.541C179.616 146.028 178.493 144.264 177.205 142.638C177.186 144.483 177.195 146.328 177.205 148.173C176.392 148.173 175.583 148.178 174.779 148.182C174.813 142.937 174.794 137.692 174.789 132.452Z" fill="#909093"/>
<path d="M0.0194084 133.688C2.80127 133.703 5.58315 133.693 8.36977 133.698C8.36501 134.402 8.36501 135.11 8.36977 135.819C6.39631 135.819 4.42757 135.819 2.45888 135.819C2.46364 137.107 2.46364 138.401 2.4684 139.694C4.21358 139.694 5.96354 139.689 7.71349 139.689C7.71349 140.341 7.71829 140.997 7.71829 141.658C5.96357 141.654 4.20886 141.654 2.45413 141.654C2.4684 143.827 2.45889 146 2.47315 148.178C1.65524 148.178 0.832562 148.178 0.0146484 148.182C0.0241591 143.351 0.0146531 138.52 0.0194084 133.688Z" fill="#909093"/>
<path d="M47.2664 133.669C48.1792 133.688 49.102 133.665 50.0148 133.784C51.9121 138.525 53.4721 143.399 55.2791 148.178C54.3518 148.178 53.4293 148.178 52.5065 148.178C52.1499 147.084 51.7888 145.995 51.4273 144.906C49.4728 144.916 47.5183 144.911 45.5637 144.911C45.193 145.995 44.8267 147.084 44.4559 148.173C43.5903 148.178 42.725 148.178 41.8643 148.182C43.7047 143.361 45.4545 138.501 47.2664 133.669ZM46.2678 142.742C47.7657 142.757 49.2684 142.757 50.7664 142.747C50.0196 140.546 49.2491 138.349 48.6168 136.109C47.8181 138.315 47.0903 140.546 46.2678 142.742Z" fill="#909093"/>
<path d="M84.2808 133.698C87.6143 133.826 91.7752 133.003 94.2101 135.89C96.5926 138.976 96.4737 144.078 93.4871 146.737C90.9144 148.886 87.3387 148.006 84.2715 148.178C84.2808 143.351 84.2667 138.524 84.2808 133.698ZM86.8249 135.766C86.8249 139.204 86.8297 142.638 86.8249 146.076C88.708 146.066 91.0809 146.323 92.289 144.525C93.5585 142.504 93.4871 139.746 92.4792 137.635C91.3521 135.619 88.8128 135.743 86.8249 135.766Z" fill="#909093"/>
<path d="M141.195 148.177C141.214 143.351 141.195 138.524 141.205 133.697C143.792 133.816 146.56 133.293 148.999 134.373C151.434 135.604 151.22 139.432 148.799 140.588C151.719 141.567 151.976 145.881 149.422 147.402C146.916 148.786 143.916 147.963 141.195 148.177ZM143.668 135.775C143.673 137.111 143.673 138.448 143.673 139.789C144.762 139.751 145.87 139.846 146.949 139.618C148.509 139.19 148.732 136.76 147.292 136.046C146.136 135.618 144.867 135.828 143.668 135.775ZM143.673 141.548C143.673 143.103 143.673 144.668 143.678 146.228C144.928 146.156 146.255 146.332 147.444 145.852C148.576 145.295 148.652 143.798 148.276 142.747C147.349 141.116 145.209 141.667 143.673 141.548Z" fill="#909093"/>
<path d="M31.6598 133.93C32.3208 133.906 32.9818 133.887 33.6428 133.868C33.638 134.848 33.6428 135.837 33.638 136.821C34.5082 136.816 35.3785 136.812 36.2487 136.816C36.2439 137.278 36.2344 138.2 36.2297 138.661C35.3642 138.652 34.4987 138.652 33.638 138.652C33.7522 141.025 33.4003 143.436 33.8473 145.78C34.4131 146.769 35.6305 146.199 36.534 146.27C36.5197 146.912 36.5055 147.549 36.4912 148.196C35.3357 148.277 34.1421 148.496 33.0008 148.187C31.9546 147.854 31.2841 146.793 31.3079 145.719C31.2033 143.365 31.3032 141.006 31.2746 138.652C30.9037 138.657 30.1666 138.657 29.8005 138.661C29.7815 138.043 29.7672 137.43 29.7529 136.821C30.1381 136.821 30.9085 136.821 31.2937 136.821C31.4078 135.856 31.5314 134.891 31.6598 133.93Z" fill="#909093"/>
<path d="M10.0645 136.832C10.8776 136.822 11.6956 136.818 12.5087 136.813C12.504 140.598 12.4992 144.388 12.5134 148.178C11.7003 148.178 10.8872 148.178 10.0788 148.183C10.0692 144.398 10.0882 140.617 10.0645 136.832Z" fill="#909093"/>
<path d="M17.1455 137.758C18.2487 136.912 19.585 136.598 20.9593 136.665C20.983 137.397 21.0116 138.129 21.0401 138.867C19.6801 138.757 18.3201 138.919 17.1693 139.694C17.2121 142.523 17.174 145.353 17.1978 148.182C16.3894 148.177 15.5857 148.177 14.7773 148.182C14.7869 144.392 14.7821 140.607 14.7773 136.822C15.581 136.817 16.3846 136.812 17.193 136.812C17.1788 137.05 17.155 137.521 17.1455 137.758Z" fill="#909093"/>
<path d="M23.4789 137.069C25.129 136.394 26.955 136.764 28.6574 137.012C28.6669 137.506 28.6907 138.5 28.7002 138.995C27.2736 138.852 25.3572 138.034 24.1731 139.161C23.4503 141.02 26.0039 141.173 27.1214 141.777C29.5752 142.414 30.1601 146.014 28.1676 147.488C26.3035 148.886 23.7927 148.339 21.7099 147.84C21.7099 147.345 21.7099 146.361 21.7099 145.866C23.127 146.228 24.6534 146.784 26.1133 146.304C26.9883 146.018 27.3687 144.725 26.5698 144.13C25.4143 143.446 24.0447 143.208 22.9272 142.457C21.0774 141.206 21.339 137.863 23.4789 137.069Z" fill="#909093"/>
<path d="M109.375 137.103C111.477 136.76 114.011 136.133 115.823 137.612C117.354 139.091 116.793 141.43 116.884 143.332C116.979 144.564 116.384 146.371 118.068 146.694C118.073 147.208 118.082 147.726 118.101 148.245C116.874 148.444 115.6 148.392 114.696 147.427C113.25 148.359 111.324 148.768 109.755 147.892C107.787 146.832 107.753 143.532 109.727 142.462C111.196 141.573 112.975 141.649 114.625 141.601C114.325 140.707 114.525 139.423 113.588 138.891C112.176 138.296 110.63 138.843 109.242 139.224C109.28 138.515 109.327 137.807 109.375 137.103ZM110.896 144.174C110.559 144.868 110.678 145.876 111.424 146.271C112.414 146.866 113.55 146.304 114.506 145.914C114.492 144.987 114.482 144.06 114.468 143.133C113.265 143.299 111.715 143.061 110.896 144.174Z" fill="#909093"/>
<path d="M130.588 136.813C131.407 136.818 132.229 136.818 133.047 136.822C133.037 140.607 133.042 144.398 133.047 148.183C132.22 148.178 131.402 148.178 130.584 148.178C130.622 144.388 130.608 140.603 130.588 136.813Z" fill="#909093"/>
<path d="M153.552 137.099C155.854 136.69 159.201 135.972 160.599 138.445C161.37 140.623 160.823 142.991 161.013 145.249C160.799 146.139 161.66 146.391 162.278 146.733C162.268 147.128 162.25 147.917 162.24 148.312C161.013 148.426 159.753 148.374 158.835 147.446C157.413 148.345 155.54 148.74 153.985 147.936C151.907 146.961 151.887 143.481 153.908 142.43C155.373 141.574 157.128 141.664 158.768 141.597C158.469 140.704 158.669 139.457 157.756 138.897C156.367 138.307 154.836 138.83 153.466 139.206C153.49 138.502 153.519 137.798 153.552 137.099ZM155.05 144.113C154.674 144.869 154.836 145.887 155.625 146.324C156.51 146.709 157.599 146.529 158.393 146.006C158.735 145.093 158.612 144.094 158.687 143.143C157.461 143.286 155.953 143.09 155.05 144.113Z" fill="#909093"/>
<path d="M163.435 136.765C164.353 136.836 165.404 136.665 166.122 137.397C167.539 136.722 169.213 136.389 170.72 136.984C171.857 137.511 172.504 138.748 172.57 139.97C172.727 142.704 172.58 145.443 172.642 148.182C171.814 148.178 170.987 148.178 170.164 148.178C170.112 145.448 170.311 142.704 170.074 139.984C169.622 138.011 167.197 138.638 165.87 139.247C165.851 142.224 165.856 145.201 165.87 148.182C165.047 148.178 164.234 148.178 163.421 148.182C163.445 144.373 163.426 140.569 163.435 136.765Z" fill="#909093"/>
<path d="M67.6531 136.832C68.4567 136.823 69.2603 136.823 70.0639 136.823C70.0687 139.148 70.0356 141.473 70.0546 143.799C70.0497 144.712 70.2065 145.81 71.1293 146.262C72.2134 146.69 73.3071 146.138 74.3343 145.82C74.3343 142.819 74.3343 139.823 74.3343 136.828C75.1806 136.823 76.0318 136.823 76.8833 136.828C76.8736 140.632 76.8736 144.431 76.8833 148.236C75.9322 148.178 74.9143 148.245 74.0966 147.67C72.6079 148.312 70.8295 148.74 69.3127 147.936C68.1476 147.37 67.7148 145.986 67.6672 144.783C67.6104 142.135 67.6817 139.481 67.6531 136.832Z" fill="#909093"/>
</g>
<defs>
<clipPath id="clip0_28_2270">
<rect width="71.6723" height="136.882" fill="white" transform="translate(181)"/>
</clipPath>
<clipPath id="clip1_28_2270">
<rect width="186.451" height="148.381" fill="white"/>
</clipPath>
</defs>
</svg>
