<svg width="12" height="21" viewBox="0 0 12 21" fill="none" xmlns="http://www.w3.org/2000/svg">
<g clip-path="url(#clip0_42_2374)">
<path d="M8.36073e-07 1.57109L6.8675e-08 19.1271C5.50939e-08 19.4378 0.0922002 19.7416 0.2649 20C0.4376 20.2583 0.682999 20.4597 0.970099 20.5786C1.2572 20.6975 1.5731 20.7286 1.8779 20.668C2.18267 20.6074 2.46264 20.4578 2.68241 20.2381L11.4604 11.4601C11.755 11.1654 11.9205 10.7658 11.9205 10.3491C11.9205 9.93241 11.755 9.53278 11.4604 9.23809L2.68241 0.460094C2.46264 0.240393 2.18267 0.0907831 1.8779 0.0301769C1.5731 -0.0304293 1.2572 0.000690128 0.9701 0.1196C0.683 0.23851 0.437601 0.439872 0.264901 0.698231C0.0922011 0.956589 8.49656e-07 1.26034 8.36073e-07 1.57109Z" fill="white"/>
</g>
<defs>
<clipPath id="clip0_42_2374">
<rect width="20.6982" height="11.9205" fill="white" transform="translate(11.9205) rotate(90)"/>
</clipPath>
</defs>
</svg>
