<svg preserveAspectRatio="none" width="100%" height="100%" overflow="visible" style="display: block;" viewBox="0 0 20.6982 11.9205" fill="none" xmlns="http://www.w3.org/2000/svg">
<path id="Vector" d="M1.57109 11.9205H19.1271C19.4378 11.9205 19.7416 11.8283 20 11.6556C20.2583 11.4829 20.4597 11.2375 20.5786 10.9504C20.6975 10.6633 20.7286 10.3474 20.668 10.0426C20.6074 9.73783 20.4578 9.45786 20.2381 9.23809L11.4601 0.460093C11.1654 0.165496 10.7658 0 10.3491 0C9.93241 0 9.53278 0.165496 9.23809 0.460093L0.460094 9.23809C0.240393 9.45786 0.090783 9.73783 0.0301768 10.0426C-0.0304294 10.3474 0.00069005 10.6633 0.1196 10.9504C0.23851 11.2375 0.439872 11.4829 0.698231 11.6556C0.956589 11.8283 1.26034 11.9205 1.57109 11.9205Z" fill="var(--fill-0, white)"/>
</svg>
