<svg preserveAspectRatio="none" width="100%" height="100%" overflow="visible" style="display: block;" viewBox="0 0 93 36.2437" fill="none" xmlns="http://www.w3.org/2000/svg">
<g id="Frame 126366">
<path id="Vector" fill-rule="evenodd" clip-rule="evenodd" d="M44.5343 7.58994V8.22965H42.1728V7.58994H42.4809V7.16342C42.4466 6.8791 42.5493 6.59478 42.7546 6.38152C43.1996 6.02613 43.7814 6.02613 44.2263 6.31045C44.3974 6.52372 44.5001 6.77247 44.5343 7.02122L43.9525 7.09236C43.9525 6.98573 43.9183 6.8791 43.8498 6.77247C43.7814 6.70141 43.6787 6.66584 43.576 6.66584C43.3023 6.66584 43.1653 6.84353 43.1653 7.16342V7.5188L44.5343 7.58994ZM9.48934 16.2258V8.01584H11.3375V17.8962H3.63708C2.6446 17.9673 1.68633 17.6829 0.899176 17.0787C0.248926 16.4035 -0.0590875 15.4794 0.00936017 14.5553C0.00936017 13.9867 0.112032 13.418 0.385822 12.885C0.625389 12.3874 1.00185 11.9964 1.48099 11.7476C2.02856 11.4633 2.61037 11.2856 3.19218 11.2856L3.39752 12.9204C2.95261 12.9204 2.47348 13.0626 2.13124 13.3825C1.85744 13.7024 1.72055 14.1289 1.75477 14.5553C1.72055 15.0174 1.85745 15.4794 2.19968 15.8348C2.57615 16.1547 3.0895 16.2968 3.56864 16.2258H9.48934ZM7.74394 12.0319V12.6717H5.3825V12.0319H5.65629V11.6055C5.62206 11.3211 5.72474 11.0368 5.93008 10.8236C6.37499 10.4682 6.9568 10.4682 7.4017 10.7525C7.57282 10.9657 7.67549 11.2145 7.70972 11.4633L7.12792 11.5344C7.12792 11.4278 7.09369 11.3211 7.02524 11.2145C6.95679 11.1435 6.85412 11.1079 6.75145 11.1079C6.47766 11.1079 6.34077 11.2856 6.34077 11.6055V11.9609L7.74394 12.0319ZM9.52365 22.1615H12.8091C13.9727 22.0904 15.1021 22.517 15.9919 23.2989C16.8133 24.2229 17.224 25.4668 17.1213 26.7108C17.1213 27.3861 17.0186 28.0969 16.8133 28.7366C16.4369 29.8739 15.5471 30.7269 14.4519 31.0824C13.8359 31.2955 13.1856 31.4022 12.5354 31.3667H9.52365V22.1615ZM12.5011 29.7673C12.9118 29.7673 13.3225 29.6962 13.7332 29.554C14.0412 29.4119 14.3492 29.1986 14.5546 28.9498C14.7599 28.6655 14.931 28.3457 15.0337 27.9902C15.1364 27.5993 15.2048 27.1728 15.1706 26.7463C15.1706 26.3199 15.1364 25.9289 15.0337 25.538C14.9652 25.2181 14.8283 24.8982 14.623 24.6139C14.4176 24.3651 14.1781 24.1518 13.8701 24.0452C13.5278 23.903 13.1514 23.8319 12.7749 23.8319H11.3032V29.8029L12.5011 29.7673ZM3.32854 22.1616H5.07397L8.39368 31.4022H6.40869L5.68999 29.2697H2.57562L1.85692 31.4022H0.00883827L3.32854 22.1616ZM5.21085 27.6704L4.14992 24.3651L3.08898 27.6704H5.21085ZM20.2012 22.1616H18.5585H18.5243V31.4022H20.3381V25.3958L24.0001 31.4022H25.6428V22.1616H23.8289V28.2391L20.2012 22.1616ZM28.9278 16.2256V11.0366H30.7075V17.8605H18.7976C18.8661 18.8556 18.6264 19.8508 18.0789 20.6682C17.942 20.8104 17.8051 20.917 17.6683 21.0236L16.7784 19.5309C17.0179 19.1044 17.1206 18.6068 17.0522 18.1093V17.896H16.8126C15.7517 17.9671 14.6907 17.6472 13.8351 16.9719C13.1164 16.2612 12.74 15.2304 12.8084 14.1998V13.7378C12.9111 12.1028 14.2801 10.8945 15.8544 11.0366C16.6757 10.9655 17.4629 11.2854 18.0789 11.8541C18.5923 12.5293 18.8661 13.3823 18.7976 14.2708V16.2256H28.9278ZM16.4704 16.2256H17.0179V14.6618C17.0522 14.1998 17.0179 13.7378 16.9153 13.2757C16.8469 13.0624 16.7099 12.8492 16.5388 12.707C16.2993 12.6004 16.0597 12.5649 15.8201 12.5649C15.4779 12.5649 15.1356 12.707 14.8961 12.9914C14.6565 13.3468 14.5539 13.7733 14.5881 14.1998V14.6262C14.6907 15.6214 15.5121 16.3322 16.4704 16.2256ZM30.7078 10.1131V8.22949H28.9282V10.1131H30.7078ZM39.1615 15.2304V16.2256H32.0771V17.9315H40.9753V15.0527C41.0437 13.9865 40.7357 12.9203 40.0855 12.0672C39.401 11.3565 38.4427 10.9655 37.4845 11.0366C36.8342 11.0366 36.184 11.1432 35.568 11.3565L35.9786 12.9914C36.3893 12.8492 36.8685 12.7426 37.3133 12.7426C37.8267 12.707 38.3743 12.9203 38.7165 13.3467C39.0588 13.9154 39.1957 14.5552 39.1615 15.2304ZM42.481 8.97645H44.2607V17.9328H42.481V8.97645ZM31.3921 31.6509C30.7761 31.6509 30.1943 31.5443 29.6125 31.331C29.0991 31.1178 28.6543 30.798 28.2778 30.3714C27.9013 29.9094 27.6276 29.4118 27.4564 28.8432C27.08 27.5282 27.08 26.1065 27.4564 24.7915C27.6276 24.2229 27.9356 23.6897 28.312 23.2633C28.6885 22.8368 29.1334 22.5169 29.6468 22.3036C30.7761 21.8416 32.0425 21.8416 33.1718 22.3036C33.6852 22.5169 34.1301 22.8368 34.5065 23.2633C34.883 23.7253 35.1568 24.2229 35.3279 24.7915C35.5333 25.4312 35.636 26.1421 35.6017 26.8174C35.6017 27.4926 35.5333 28.1679 35.3279 28.8432C35.1568 29.4118 34.883 29.945 34.5065 30.3714C34.1301 30.798 33.6852 31.1178 33.1718 31.331C32.6243 31.5443 32.0082 31.6509 31.3921 31.6509ZM31.3921 29.9805C32.0766 30.016 32.7269 29.7317 33.1376 29.1631C33.5483 28.4522 33.7536 27.6348 33.7194 26.7818C33.7536 25.9644 33.5825 25.1114 33.1376 24.4006C32.3162 23.4054 30.8788 23.2633 29.9206 24.1518C29.8504 24.2004 29.7962 24.2655 29.7471 24.3246C29.7243 24.352 29.7026 24.3781 29.681 24.4006C29.2703 25.1114 29.065 25.9288 29.0991 26.7818C29.065 27.5993 29.2361 28.4522 29.681 29.1631C30.0575 29.6962 30.7077 30.016 31.3921 29.9805ZM44.2608 29.5551C44.4661 29.1287 44.5688 28.6666 44.603 28.2046L42.618 28.2402C42.5838 28.7377 42.4126 29.1998 42.1046 29.5551C41.7624 29.875 41.3175 30.0527 40.8384 30.0171C40.2223 30.0527 39.6405 29.7328 39.2641 29.1998C38.8534 28.4889 38.6481 27.6359 38.6823 26.8185C38.6481 25.9655 38.8191 25.1481 39.2298 24.4373C39.5721 23.8686 40.1881 23.5487 40.8384 23.5843C41.2833 23.5487 41.7282 23.6909 42.0704 24.0463C42.3442 24.4017 42.5153 24.8638 42.5838 25.3258L44.4318 25.077C44.3635 24.615 44.2265 24.1884 44.0554 23.762C43.8843 23.371 43.6447 23.0511 43.371 22.7668C43.0629 22.4825 42.6865 22.2692 42.31 22.1271C41.8308 21.9849 41.3518 21.9139 40.8384 21.9139C40.2566 21.8783 39.6748 21.9849 39.1271 22.2337C38.6138 22.4469 38.1689 22.7668 37.8266 23.1933C37.4503 23.6554 37.1764 24.1529 37.0053 24.7216C36.8342 25.3969 36.7315 26.0721 36.7315 26.7474C36.7315 27.4227 36.8342 28.098 37.0053 28.7377C37.1764 29.3064 37.4502 29.804 37.7924 30.266C38.1347 30.6924 38.5796 31.0479 39.0588 31.2611C39.6405 31.5099 40.2223 31.6165 40.8384 31.6165C41.386 31.6521 41.8993 31.5455 42.4126 31.3678C42.8233 31.2256 43.1998 30.9768 43.542 30.6569C43.8501 30.337 44.0896 29.9817 44.2608 29.5551Z" fill="var(--fill-0, #909093)"/>
<path id="Vector_2" fill-rule="evenodd" clip-rule="evenodd" d="M55.2606 18.8798C55.2606 26.6716 59.9791 33.3607 66.7156 36.2437C70.5808 34.3634 73.5809 30.9994 74.0007 27.9302C74.8523 23.0264 72.1858 18.7325 67.0644 17.6653C66.9729 17.6467 66.8748 17.6179 66.7681 17.5806C66.5804 17.5824 64.0876 17.6055 62.1664 17.0928C62.1428 17.1115 61.0626 17.9685 61.5062 19.6082C61.5062 19.6082 58.9412 16.9319 60.5716 13.3341C60.5716 13.3341 61.3623 11.6385 64.0424 9.90403C64.0627 9.87861 64.083 9.85492 64.105 9.8295C64.8228 8.97748 66.5412 7.4767 69.0385 6.29102C70.3116 5.71852 72.4973 4.89697 74.9454 4.68693C85.7389 3.68246 91.4088 11.6335 91.7739 12.1636C89.0669 5.05619 82.1898 0 74.1311 0C63.7088 0 55.2606 8.45235 55.2606 18.8798ZM84.9071 34.377C87.3686 32.6611 89.4021 30.3727 90.8139 27.7049C88.5829 21.8492 83.5425 17.0047 76.8027 15.5632C78.9255 16.1476 88.0478 20.4314 85.9482 31.494C85.7066 32.5137 85.3556 33.4758 84.9071 34.377ZM67.9346 12.1043C71.5188 9.60758 76.0629 8.20848 81.465 8.93003L81.4634 8.92837C86.2229 9.45681 90.4857 12.3838 92.568 14.8569C92.8513 16.1527 93 17.4993 93 18.8798C93 19.0204 92.9984 19.161 92.9945 19.3033C91.9455 16.9963 86.4212 9.53644 76.2796 9.84469C76.3795 10.219 76.3947 10.6172 76.3117 11.0152C76.0053 12.482 74.4782 13.4052 72.902 13.0766C71.7236 12.8327 70.85 11.957 70.6114 10.9186C68.9877 11.4996 67.9346 12.1043 67.9346 12.1043Z" fill="var(--fill-0, #909093)"/>
</g>
</svg>
