<svg preserveAspectRatio="none" width="100%" height="100%" overflow="visible" style="display: block;" viewBox="0 0 101 29.5265" fill="none" xmlns="http://www.w3.org/2000/svg">
<g id="Group">
<path id="Vector" d="M89.1002 5.87555L82.9271 29.4521V29.5265H87.7615L93.9345 5.94993H89.1002V5.87555ZM12.7923 19.2629C12.0486 19.6348 11.3049 19.7835 10.4868 19.7835C8.77615 19.7835 7.80928 19.486 7.66054 18.0729V17.9985C7.66054 17.9242 7.66054 17.9242 7.66054 17.8498V13.7592V13.313V10.4124V9.22239V8.77614V6.0243L3.34683 6.54492C6.24743 5.94993 7.88366 3.7187 7.88366 1.41311V0H3.04934V6.61929L2.75184 6.69367V18.891C2.90059 22.3122 5.20619 24.3947 8.85052 24.3947C10.1893 24.3947 11.6024 24.0972 12.718 23.5766L12.7923 19.2629Z" fill="var(--fill-0, #909093)"/>
<path id="Vector_2" d="M13.5361 4.98307L0 7.06554V10.4867L13.5361 8.40427V4.98307ZM13.5361 10.0405L0 12.123V15.3954L13.5361 13.313V10.0405ZM28.7084 11.6024C28.4853 7.80928 26.1053 5.50368 22.2379 5.50368C20.0066 5.50368 18.1473 6.39617 16.8829 8.0324C15.6186 9.66863 14.9492 12.0486 14.9492 14.9492C14.9492 17.8498 15.6186 20.2297 16.8829 21.866C18.1473 23.5022 20.0066 24.3203 22.2379 24.3203C26.1053 24.3203 28.4853 22.0891 28.7084 18.2216V23.9484H33.5427V5.94992L28.7084 6.69366V11.6024ZM29.0059 14.9492C29.0059 18.296 27.2209 20.5272 24.4691 20.5272C21.6429 20.5272 19.9323 18.4448 19.9323 14.9492C19.9323 11.4536 21.6429 9.37114 24.4691 9.37114C25.8078 9.37114 26.9978 9.89175 27.8159 10.933C28.5597 11.8999 29.0059 13.313 29.0059 14.9492ZM47.5994 5.50368C43.732 5.50368 41.352 7.73491 41.1289 11.6024V0.669368L36.2946 1.41311V23.9484H41.1289V18.2216C41.352 22.0891 43.732 24.3203 47.5994 24.3203C52.1362 24.3203 54.8881 20.8247 54.8881 14.9492C54.8881 9.07364 52.1362 5.50368 47.5994 5.50368ZM45.4426 20.5272C42.6907 20.5272 40.9057 18.3704 40.9057 14.9492C40.9057 13.313 41.352 11.8999 42.0957 10.933C42.9138 9.89175 44.0295 9.37114 45.4426 9.37114C48.2688 9.37114 49.9794 11.4536 49.9794 14.9492C49.9794 18.4448 48.2688 20.5272 45.4426 20.5272ZM67.9779 5.50368C64.1105 5.50368 61.7305 7.73491 61.5074 11.6024V0.669368L56.6731 1.41311V23.9484H61.5074V18.2216C61.7305 22.0891 64.1105 24.3203 67.9779 24.3203C72.5147 24.3203 75.2666 20.8247 75.2666 14.9492C75.2666 9.07364 72.5147 5.50368 67.9779 5.50368ZM65.8211 20.5272C63.0692 20.5272 61.2842 18.3704 61.2842 14.9492C61.2842 13.313 61.7305 11.8999 62.4742 10.933C63.2923 9.89175 64.408 9.37114 65.8211 9.37114C68.6473 9.37114 70.3579 11.4536 70.3579 14.9492C70.3579 18.4448 68.6473 20.5272 65.8211 20.5272ZM75.2666 5.87555H80.3984L84.5633 23.9484H79.9521L75.2666 5.87555ZM97.8763 7.7349V6.32179H97.2813V6.0243H98.8432V6.32179H98.2482V7.7349H97.8763ZM98.9175 7.7349V5.94992H99.5125L99.81 6.76804C99.8844 6.99117 99.9588 7.06554 99.9588 7.13991C99.9588 7.06554 100.033 6.99117 100.108 6.76804L100.405 5.94992H101V7.7349H100.628V6.32179L100.108 7.7349H99.7357L99.2894 6.32179V7.7349H98.9175Z" fill="var(--fill-0, #909093)"/>
</g>
</svg>
