<svg width="27" height="12" viewBox="0 0 27 12" fill="none" xmlns="http://www.w3.org/2000/svg">
<path d="M8.10382 2.90211C8.00307 3.02668 7.87564 3.12688 7.73098 3.19527C7.58632 3.26365 7.42815 3.29846 7.26824 3.29712C7.24968 2.97908 7.35675 2.66649 7.56628 2.42704C7.77775 2.1826 8.07523 2.0296 8.39654 2C8.40926 2.16228 8.38995 2.32549 8.33972 2.48028C8.2895 2.63508 8.20933 2.77842 8.10382 2.90211ZM8.39654 3.36117C7.93351 3.33449 7.53967 3.62273 7.3321 3.62273C7.12454 3.62273 6.79989 3.37719 6.40605 3.38253C6.16656 3.38735 5.93249 3.4549 5.7271 3.57851C5.52169 3.70212 5.35211 3.87747 5.23517 4.08714C4.74021 4.94655 5.10744 6.22232 5.59176 6.92159C5.82593 7.26322 6.12397 7.64755 6.48056 7.63153C6.83715 7.61552 6.9702 7.402 7.39597 7.402C7.82175 7.402 7.92819 7.63153 8.3167 7.6262C8.70522 7.62086 8.94472 7.27923 9.18422 6.93226C9.34958 6.6871 9.47866 6.4192 9.56741 6.13691C9.34511 6.04034 9.15571 5.88084 9.02243 5.67795C8.88913 5.47505 8.81774 5.23757 8.81699 4.99459C8.82082 4.7799 8.87838 4.56962 8.9844 4.38307C9.09042 4.19653 9.24148 4.03969 9.42372 3.927C9.30637 3.76129 9.15283 3.62465 8.97481 3.52752C8.79679 3.43038 8.599 3.37531 8.39654 3.36651M11.0576 2.40035V7.60485H11.8879V5.8113H13.0002C13.2285 5.82414 13.4569 5.78896 13.6707 5.70802C13.8846 5.62708 14.0792 5.50217 14.2421 5.34131C14.405 5.18045 14.5326 4.9872 14.6166 4.77396C14.7006 4.56073 14.7392 4.33224 14.7299 4.10315C14.7405 3.87601 14.7037 3.64915 14.6219 3.43708C14.5401 3.22501 14.415 3.03242 14.2547 2.87163C14.0944 2.71084 13.9024 2.58539 13.6909 2.50332C13.4795 2.42125 13.2533 2.38436 13.0268 2.39501L11.0576 2.40035ZM11.8879 3.07826H12.7927C12.9349 3.058 13.0799 3.06991 13.217 3.11313C13.3541 3.15635 13.4798 3.22979 13.5849 3.32805C13.6901 3.42632 13.7719 3.54693 13.8245 3.68105C13.8771 3.81516 13.8991 3.95939 13.889 4.10315C13.899 4.2478 13.8767 4.39286 13.8239 4.52781C13.771 4.66276 13.6889 4.78422 13.5834 4.88337C13.4779 4.98252 13.3517 5.05687 13.2141 5.10104C13.0764 5.14521 12.9306 5.15808 12.7873 5.13871H11.8879V3.07826ZM16.1776 7.60485C16.4155 7.61061 16.6507 7.55223 16.8585 7.43581C17.0663 7.31939 17.2392 7.14918 17.359 6.94294V7.60485H18.1042V5.00526C18.1042 4.25262 17.5081 3.7722 16.5874 3.7722C15.6666 3.7722 15.1185 4.26329 15.0812 4.93587H15.805C15.8464 4.76983 15.9462 4.62438 16.0861 4.52629C16.2259 4.42821 16.3963 4.3841 16.566 4.40208C17.0557 4.40208 17.3324 4.63695 17.3324 5.05864V5.34156L16.3266 5.40561C15.3952 5.45899 14.8896 5.84332 14.8896 6.51057C14.8949 6.66995 14.9334 6.82646 15.0027 6.97001C15.072 7.11356 15.1704 7.24097 15.2917 7.34405C15.4131 7.44713 15.5546 7.52359 15.7071 7.5685C15.8597 7.61342 16.0199 7.6258 16.1776 7.60485ZM16.3904 6.99098C15.9646 6.99098 15.6932 6.7828 15.6932 6.45719C15.6932 6.13157 15.954 5.9234 16.4543 5.9234L17.3484 5.86467V6.15826C17.3461 6.27898 17.3188 6.39788 17.2684 6.50754C17.218 6.61718 17.1456 6.71519 17.0556 6.7954C16.9657 6.87561 16.8601 6.93629 16.7456 6.97363C16.6312 7.01096 16.5102 7.02414 16.3904 7.01233V6.99098ZM19.1154 8.97667C19.8978 8.97667 20.265 8.67779 20.5896 7.77032L22 3.82024H21.1857L20.2384 6.88956L19.291 3.82024H18.4341L19.7966 7.60485L19.7221 7.83438C19.6949 7.99128 19.6108 8.13256 19.4861 8.23108C19.3613 8.32962 19.2047 8.3784 19.0462 8.36818H18.8067V8.9927C18.9095 9.00009 19.0125 9.00185 19.1154 8.99807V8.97667Z" fill="black"/>
</svg>
