<svg width="152" height="44" preserveAspectRatio="xMidYMid meet" overflow="visible" style="display: block;" viewBox="0 0 152.167 43.2002" fill="none" xmlns="http://www.w3.org/2000/svg">
<path id="Union" d="M123.838 8.51953L126.985 16.8672C128.064 19.75 128.106 24.3108 126.08 29.8184H127.46L133.971 8.51953H143.586L133.842 34.4658C131.513 40.7046 129.013 43.2002 123.665 43.2002C120.345 43.2002 117.586 42.2109 114.998 40.877L117.931 34.293C119.483 35.1964 121.035 35.6698 122.069 35.6699C123.062 35.6699 123.665 35.4983 124.269 34.5947L114.007 8.51953H123.838ZM146.26 24.3975C149.494 24.3977 152.167 26.6349 152.167 30.1201C152.167 33.6051 149.494 35.8426 146.26 35.8428C143.026 35.8428 140.137 33.6053 140.137 30.1201C140.137 26.6348 143.026 24.3975 146.26 24.3975ZM43.4209 0V5.55078C43.4209 8.69175 43.2052 11.3598 41.5244 14.458H42.9473C45.0164 9.72512 47.56 7.83118 51.8711 7.83105C57.0887 7.83105 60.496 11.6177 60.4961 17.7275V35.1543H51.1826V20.7402C51.1826 17.7711 49.6731 16.1787 47.3447 16.1787C45.1025 16.1787 43.4209 17.771 43.4209 20.7402V35.1543H34.1074V10.7139C31.7783 13.2097 27.0792 13.1234 23.543 10.8857C20.1793 8.73471 17.592 7.95996 14.9189 7.95996C12.5907 7.96 11.3408 8.9503 11.3408 10.2842C11.3409 11.8759 12.4616 12.6932 17.29 13.6396C25.9139 15.3607 30.873 17.9001 30.873 24.4404C30.8729 31.497 25.3533 35.7129 16.2119 35.7129C10.0891 35.7129 4.26929 33.8197 0 29.9902L5.3457 23.6221C8.75263 26.3328 12.6768 27.7968 16.6865 27.7969C19.7911 27.7969 21.1709 26.9358 21.1709 25.4727C21.1709 23.8806 20.0075 23.1058 14.7031 21.9873C7.33029 20.4382 1.63869 18.2443 1.63867 11.0156C1.63867 4.38924 6.98506 0.000174645 15.0479 0C19.7045 0 23.6288 1.33397 27.5957 3.44238C30.1826 4.81928 34.1074 3.78652 34.1074 0H43.4209ZM77.5283 7.95996C86.0228 7.96005 92.2744 14.1134 92.2744 21.8584C92.2744 29.6034 86.0228 35.7128 77.5283 35.7129C69.0338 35.7129 62.9541 29.6034 62.9541 21.8584C62.9541 14.1134 69.0338 7.95996 77.5283 7.95996ZM112.454 7.95996V17.8564H111.679C106.763 17.8564 103.96 20.6534 103.96 26.7637V35.1543H94.6465V8.51953H103.96L103.27 13.8984H104.478C105.555 10.1552 107.97 7.78833 112.454 7.95996ZM77.5713 15.9209C74.2944 15.9209 72.0088 18.5454 72.0088 21.8584C72.0088 25.2147 74.2944 27.7529 77.5713 27.7529C80.8481 27.7529 83.2197 25.2147 83.2197 21.8584C83.2197 18.5455 80.8481 15.9209 77.5713 15.9209Z" fill="white"/>
</svg>
