<svg preserveAspectRatio="none" width="100%" height="100%" overflow="visible" style="display: block;" viewBox="0 0 32.6186 10.253" fill="none" xmlns="http://www.w3.org/2000/svg">
<g id="Tabby">
<path id="Union" d="M29.332 8.17773L30.9395 2.04004V2.06641H32.6182L30.4746 10.2529H28.7959V10.2275L29.2959 8.31641H27.7637L26.1357 2.04004H27.918L29.332 8.17773ZM2.7373 0V0.490234C2.7373 1.29085 2.16933 2.06585 1.16211 2.27246L1.22168 2.26465L4.7002 1.73047V2.91797L2.66016 3.23145V3.7998L4.7002 3.48633V4.62305L2.66016 4.93652V6.27539C2.71181 6.76609 3.0476 6.87012 3.6416 6.87012C3.92567 6.87011 4.18414 6.81857 4.44238 6.68945L4.41602 8.18652C4.02864 8.36727 3.53806 8.4707 3.07324 8.4707C1.80784 8.47064 1.00771 7.74753 0.956055 6.55957V5.19824L0 5.3457V4.20996L0.956055 4.0625V3.49414L0 3.6416V2.45312L1.05859 2.29004V0H2.7373ZM7.72168 1.91113C9.06464 1.91113 9.89127 2.71216 9.96875 4.0293V2.32422L11.6475 2.06641V8.31641H9.96875V6.32715C9.89127 7.67011 9.06464 8.44531 7.72168 8.44531C6.94706 8.44522 6.30128 8.16086 5.8623 7.59277C5.42342 7.02466 5.19145 6.19836 5.19141 5.19141C5.19141 4.18418 5.42326 3.35724 5.8623 2.78906C6.30128 2.22098 6.94706 1.91123 7.72168 1.91113ZM14.2822 4.0293C14.3597 2.68649 15.1856 1.91132 16.5283 1.91113C18.1037 1.91113 19.0596 3.15113 19.0596 5.19141C19.0595 7.2315 18.1036 8.44531 16.5283 8.44531C15.1856 8.44513 14.3597 7.66995 14.2822 6.32715V8.31641H12.6035V0.491211L14.2822 0.232422V4.0293ZM21.3584 4.0293C21.4359 2.68633 22.2625 1.91113 23.6055 1.91113C25.1807 1.91128 26.1357 3.15125 26.1357 5.19141C26.1357 7.23138 25.1806 8.44517 23.6055 8.44531C22.2625 8.44531 21.4359 7.67011 21.3584 6.32715V8.31641H19.6797V0.491211L21.3584 0.232422V4.0293ZM8.49707 3.25391C7.51567 3.25391 6.92188 3.97757 6.92188 5.19141C6.92197 6.40506 7.51575 7.12793 8.49707 7.12793C9.45243 7.1278 10.0722 6.35333 10.0723 5.19141C10.0723 4.62341 9.9173 4.13261 9.65918 3.79688C9.37514 3.43537 8.96185 3.25397 8.49707 3.25391ZM15.7803 3.25391C15.2896 3.25391 14.9013 3.43531 14.6172 3.79688C14.3591 4.1326 14.2041 4.62349 14.2041 5.19141C14.2042 6.37925 14.8248 7.12793 15.7803 7.12793C16.7613 7.12771 17.3554 6.40488 17.3555 5.19141C17.3555 3.97775 16.7614 3.25412 15.7803 3.25391ZM22.8564 3.25391C22.3657 3.25391 21.9784 3.43531 21.6943 3.79688C21.4361 4.13261 21.2812 4.62328 21.2812 5.19141C21.2814 6.37925 21.901 7.12793 22.8564 7.12793C23.8376 7.12782 24.4315 6.40497 24.4316 5.19141C24.4316 3.97766 23.8377 3.25401 22.8564 3.25391Z" fill="var(--fill-0, #292929)"/>
</g>
</svg>
