<svg preserveAspectRatio="none" width="100%" height="100%" overflow="visible" style="display: block;" viewBox="0 0 25.6667 8.16667" fill="none" xmlns="http://www.w3.org/2000/svg">
<g id="Frame 126515">
<path id="Vector" d="M9.41111 7.95288L10.7148 0.25655H12.7519L11.4889 7.95288H9.41111Z" fill="var(--fill-0, #3C58BF)"/>
<path id="Vector_2" d="M9.41111 7.95288L11.0815 0.25655H12.7519L11.4889 7.95288H9.41111Z" fill="var(--fill-0, #293688)"/>
<path id="Vector_3" d="M18.863 0.34206C18.4556 0.17103 17.8037 0 16.9889 0C14.9519 0 13.4852 1.06893 13.4852 2.6082C13.4852 3.76265 14.5037 4.36125 15.3185 4.74607C16.1333 5.13089 16.3778 5.38743 16.3778 5.72949C16.3778 6.24258 15.7259 6.49912 15.1556 6.49912C14.3407 6.49912 13.8926 6.37085 13.2 6.07155L12.9148 5.94328L12.6296 7.69633C13.1185 7.91012 14.0148 8.1239 14.9519 8.1239C17.1111 8.1239 18.537 7.05497 18.537 5.43019C18.537 4.53228 18.0074 3.84817 16.7852 3.29232C16.0519 2.9075 15.6037 2.69372 15.6037 2.3089C15.6037 1.96684 15.9704 1.62478 16.7852 1.62478C17.4778 1.62478 17.9667 1.75305 18.3333 1.92408L18.537 2.0096L18.863 0.34206Z" fill="var(--fill-0, #3C58BF)"/>
<path id="Vector_4" d="M18.863 0.34206C18.4556 0.17103 17.8037 0 16.9889 0C14.9519 0 13.8519 1.06893 13.8519 2.6082C13.8519 3.76265 14.5037 4.36125 15.3185 4.74607C16.1333 5.13089 16.3778 5.38743 16.3778 5.72949C16.3778 6.24258 15.7259 6.49912 15.1556 6.49912C14.3407 6.49912 13.8926 6.37085 13.2 6.07155L12.9148 5.94328L12.6296 7.69633C13.1185 7.91012 14.0148 8.1239 14.9519 8.1239C17.1111 8.1239 18.537 7.05497 18.537 5.43019C18.537 4.53228 18.0074 3.84817 16.7852 3.29232C16.0519 2.9075 15.6037 2.69372 15.6037 2.3089C15.6037 1.96684 15.9704 1.62478 16.7852 1.62478C17.4778 1.62478 17.9667 1.75305 18.3333 1.92408L18.537 2.0096L18.863 0.34206Z" fill="var(--fill-0, #293688)"/>
<path id="Vector_5" d="M22.3667 0.25655C21.8778 0.25655 21.5111 0.299307 21.3074 0.812396L18.2519 7.95288H20.4519L20.8593 6.67016H23.4667L23.7111 7.95288H25.6667L23.9556 0.25655H22.3667V0.25655ZM21.4296 5.38744C21.5519 5.00262 22.2444 3.1213 22.2444 3.1213C22.2444 3.1213 22.4074 2.65096 22.5296 2.35166L22.6519 3.07854C22.6519 3.07854 23.0593 5.00262 23.1407 5.43019H21.4296V5.38744Z" fill="var(--fill-0, #3C58BF)"/>
<path id="Vector_6" d="M22.8556 0.25655C22.3667 0.25655 22 0.299307 21.7963 0.812396L18.2519 7.95288H20.4519L20.8593 6.67016H23.4667L23.7111 7.95288H25.6667L23.9556 0.25655H22.8556V0.25655ZM21.4296 5.38744C21.5926 4.95986 22.2444 3.1213 22.2444 3.1213C22.2444 3.1213 22.4074 2.65096 22.5296 2.35166L22.6519 3.07854C22.6519 3.07854 23.0593 5.00262 23.1407 5.43019H21.4296V5.38744Z" fill="var(--fill-0, #293688)"/>
<path id="Vector_7" d="M5.66296 5.64399L5.45926 4.53229C5.09259 3.24957 3.91111 1.83858 2.60741 1.15446L4.44074 7.99564H6.64074L9.94074 0.299313H7.74074L5.66296 5.64399Z" fill="var(--fill-0, #3C58BF)"/>
<path id="Vector_8" d="M5.66296 5.64399L5.45926 4.53229C5.09259 3.24957 3.91111 1.83858 2.60741 1.15446L4.44074 7.99564H6.64074L9.94074 0.299313H8.14815L5.66296 5.64399Z" fill="var(--fill-0, #293688)"/>
<path id="Vector_9" d="M0 0.25655L0.366667 0.342065C2.97407 0.983426 4.76667 2.60821 5.45926 4.53229L4.72593 0.897911C4.6037 0.384822 4.23704 0.25655 3.78889 0.25655H0Z" fill="var(--fill-0, #FFBC00)"/>
<path id="Vector_10" d="M0 0.25655C2.60741 0.897911 4.76667 2.56545 5.45926 4.48953L4.76667 1.45376C4.64444 0.940668 4.23704 0.641366 3.78889 0.641366L0 0.25655Z" fill="var(--fill-0, #F7981D)"/>
<path id="Vector_11" d="M0 0.25655C2.60741 0.897911 4.76667 2.56545 5.45926 4.48953L4.97037 2.82199C4.84815 2.3089 4.68518 1.79582 4.11481 1.58203L0 0.25655Z" fill="var(--fill-0, #ED7C00)"/>
<path id="Vector_12" d="M7.7 5.38744L6.31481 3.93369L5.66296 5.55847L5.5 4.48953C5.13333 3.20681 3.95185 1.79582 2.64815 1.1117L4.48148 7.95288H6.68148L7.7 5.38744ZM11.4889 7.95288L9.73704 6.07155L9.41111 7.95288H11.4889V7.95288ZM16.1741 5.30192C16.337 5.47295 16.4185 5.60122 16.3778 5.77225C16.3778 6.28534 15.7259 6.54189 15.1556 6.54189C14.3407 6.54189 13.8926 6.41361 13.2 6.11431L12.9148 5.98604L12.6296 7.73909C13.1185 7.95288 14.0148 8.16667 14.9519 8.16667C16.2556 8.16667 17.3148 7.78185 17.9259 7.09773L16.1741 5.30192ZM18.537 7.95288H20.4519L20.8593 6.67016H23.4667L23.7111 7.95288H25.6667L24.9741 4.83159L22.5296 2.35166L22.6518 3.03578C22.6518 3.03578 23.0593 4.95986 23.1407 5.38744H21.4296C21.5926 4.95986 22.2444 3.1213 22.2444 3.1213C22.2444 3.1213 22.4074 2.65096 22.5296 2.35166" fill="var(--fill-0, #051244)"/>
</g>
</svg>
