<svg width="27" height="12" viewBox="0 0 27 12" fill="none" xmlns="http://www.w3.org/2000/svg">
<path d="M22.0259 7.58321L23.1234 3.3928V3.41081H24.2695L22.806 9H21.6599V8.98266L22.0013 7.67789H20.9552L19.8437 3.3928H21.0606L22.0259 7.58321ZM3.86885 2V2.3347C3.86885 2.88131 3.48107 3.41043 2.79341 3.55148L2.83408 3.54615L5.20898 3.18145V3.9922L3.81618 4.20622V4.59425L5.20898 4.38023V5.15631L3.81618 5.37033V6.28442C3.85144 6.61944 4.0807 6.69046 4.48624 6.69046C4.68019 6.69046 4.85665 6.65527 5.03296 6.56711L5.01497 7.58921C4.75049 7.71262 4.41555 7.78323 4.0982 7.78323C3.23427 7.78319 2.688 7.2895 2.65273 6.47844V5.54901L2 5.64969V4.87428L2.65273 4.77361V4.38557L2 4.48624V3.67483L2.72274 3.56349V2H3.86885ZM7.27185 3.30479C8.18873 3.30479 8.7531 3.85168 8.806 4.75094V3.58682L9.95214 3.41081V7.67789H8.806V6.31976C8.7531 7.23664 8.18873 7.7659 7.27185 7.7659C6.74299 7.76584 6.3021 7.57169 6.00239 7.18384C5.70275 6.79597 5.54438 6.23183 5.54435 5.54435C5.54435 4.85668 5.70264 4.2921 6.00239 3.90419C6.3021 3.51634 6.74299 3.30486 7.27185 3.30479ZM11.7509 4.75094C11.8039 3.83416 12.3677 3.30492 13.2844 3.30479C14.36 3.30479 15.0126 4.15138 15.0126 5.54435C15.0126 6.93719 14.3599 7.7659 13.2844 7.7659C12.3677 7.76577 11.8039 7.23653 11.7509 6.31976V7.67789H10.6048V2.33537L11.7509 2.15868V4.75094ZM16.5821 4.75094C16.635 3.83405 17.1994 3.30479 18.1163 3.30479C19.1917 3.3049 19.8437 4.15146 19.8437 5.54435C19.8437 6.93711 19.1916 7.7658 18.1163 7.7659C17.1994 7.7659 16.635 7.23664 16.5821 6.31976V7.67789H15.436V2.33537L16.5821 2.15868V4.75094ZM7.80124 4.22155C7.1312 4.22155 6.7258 4.71562 6.7258 5.54435C6.72586 6.37295 7.13126 6.86648 7.80124 6.86648C8.45349 6.86639 8.87663 6.33763 8.8767 5.54435C8.8767 5.15656 8.77087 4.82147 8.59465 4.59226C8.40072 4.34544 8.11856 4.22159 7.80124 4.22155ZM12.7737 4.22155C12.4387 4.22155 12.1736 4.3454 11.9797 4.59226C11.8034 4.82147 11.6976 5.15661 11.6976 5.54435C11.6977 6.35533 12.1214 6.86648 12.7737 6.86648C13.4435 6.86633 13.8491 6.37283 13.8492 5.54435C13.8492 4.71574 13.4436 4.2217 12.7737 4.22155ZM17.6048 4.22155C17.2698 4.22155 17.0054 4.3454 16.8114 4.59226C16.6351 4.82147 16.5294 5.15647 16.5294 5.54435C16.5295 6.35533 16.9525 6.86648 17.6048 6.86648C18.2747 6.8664 18.6802 6.37289 18.6803 5.54435C18.6803 4.71568 18.2748 4.22162 17.6048 4.22155Z" fill="white"/>
</svg>
