<svg width="27" height="12" viewBox="0 0 27 12" fill="none" xmlns="http://www.w3.org/2000/svg">
<g clip-path="url(#clip0_30_2319)">
<path d="M11.0664 9.8167L12.1839 3.21985H13.9299L12.8474 9.8167H11.0664Z" fill="#3C58BF"/>
<path d="M11.0664 9.8167L12.4981 3.21985H13.9299L12.8474 9.8167H11.0664Z" fill="#293688"/>
<path d="M19.1681 3.29319C18.8188 3.1466 18.2601 3 17.5617 3C15.8157 3 14.5585 3.91623 14.5585 5.2356C14.5585 6.22513 15.4315 6.73822 16.13 7.06806C16.8284 7.3979 17.0379 7.6178 17.0379 7.91099C17.0379 8.35078 16.4792 8.57068 15.9903 8.57068C15.2919 8.57068 14.9077 8.46073 14.3141 8.20418L14.0696 8.09424L13.8252 9.59685C14.2442 9.7801 15.0125 9.96335 15.8157 9.96335C17.6665 9.96335 18.8887 9.04712 18.8887 7.65445C18.8887 6.88481 18.4347 6.29843 17.3871 5.82199C16.7585 5.49215 16.3744 5.3089 16.3744 4.97906C16.3744 4.68586 16.6887 4.39267 17.3871 4.39267C17.9808 4.39267 18.3998 4.50262 18.7141 4.64921L18.8887 4.72251L19.1681 3.29319Z" fill="#3C58BF"/>
<path d="M19.1681 3.29319C18.8188 3.1466 18.2601 3 17.5617 3C15.8157 3 14.8728 3.91623 14.8728 5.2356C14.8728 6.22513 15.4315 6.73822 16.13 7.06806C16.8284 7.3979 17.0379 7.6178 17.0379 7.91099C17.0379 8.35078 16.4792 8.57068 15.9903 8.57068C15.2919 8.57068 14.9077 8.46073 14.3141 8.20418L14.0696 8.09424L13.8252 9.59685C14.2442 9.7801 15.0125 9.96335 15.8157 9.96335C17.6665 9.96335 18.8887 9.04712 18.8887 7.65445C18.8887 6.88481 18.4347 6.29843 17.3871 5.82199C16.7585 5.49215 16.3744 5.3089 16.3744 4.97906C16.3744 4.68586 16.6887 4.39267 17.3871 4.39267C17.9808 4.39267 18.3998 4.50262 18.7141 4.64921L18.8887 4.72251L19.1681 3.29319Z" fill="#293688"/>
<path d="M22.1715 3.21985C21.7525 3.21985 21.4382 3.2565 21.2636 3.69629L18.6445 9.8167H20.5303L20.8795 8.71723H23.1144L23.3239 9.8167H25.0001L23.5334 3.21985H22.1715ZM21.3684 7.61775C21.4731 7.28791 22.0668 5.67535 22.0668 5.67535C22.0668 5.67535 22.2065 5.2722 22.3112 5.01566L22.416 5.6387C22.416 5.6387 22.7652 7.28791 22.835 7.6544H21.3684V7.61775Z" fill="#3C58BF"/>
<path d="M22.5906 3.21985C22.1715 3.21985 21.8572 3.2565 21.6826 3.69629L18.6445 9.8167H20.5303L20.8795 8.71723H23.1144L23.3239 9.8167H25.0001L23.5334 3.21985H22.5906ZM21.3684 7.61775C21.508 7.25126 22.0668 5.67535 22.0668 5.67535C22.0668 5.67535 22.2065 5.2722 22.3112 5.01566L22.416 5.6387C22.416 5.6387 22.7652 7.28791 22.835 7.6544H21.3684V7.61775Z" fill="#293688"/>
<path d="M7.8544 7.83774L7.67979 6.88486C7.36551 5.78539 6.35281 4.57596 5.23535 3.98958L6.80678 9.85345H8.69249L11.5211 3.25659H9.63535L7.8544 7.83774Z" fill="#3C58BF"/>
<path d="M7.8544 7.83774L7.67979 6.88486C7.36551 5.78539 6.35281 4.57596 5.23535 3.98958L6.80678 9.85345H8.69249L11.5211 3.25659H9.98456L7.8544 7.83774Z" fill="#293688"/>
<path d="M3 3.21985L3.31429 3.29315C5.54921 3.84289 7.08571 5.23556 7.67936 6.88477L7.05079 3.76959C6.94603 3.3298 6.63175 3.21985 6.24762 3.21985H3Z" fill="#FFBC00"/>
<path d="M3 3.21985C5.23492 3.76959 7.08571 5.19891 7.67936 6.84812L7.08571 4.24603C6.98095 3.80624 6.63175 3.54969 6.24762 3.54969L3 3.21985Z" fill="#F7981D"/>
<path d="M3 3.21985C5.23492 3.76959 7.08571 5.19891 7.67936 6.84812L7.26032 5.4188C7.15556 4.97901 7.01587 4.53922 6.52698 4.35598L3 3.21985Z" fill="#ED7C00"/>
<path d="M9.59969 7.6178L8.41239 6.37173L7.85366 7.7644L7.71398 6.84817C7.39969 5.74869 6.38699 4.53927 5.26953 3.95288L6.84096 9.81675H8.72667L9.59969 7.6178ZM12.8473 9.81675L11.3457 8.20419L11.0664 9.81675H12.8473ZM16.8632 7.5445C17.0029 7.6911 17.0727 7.80105 17.0378 7.94765C17.0378 8.38744 16.4791 8.60733 15.9902 8.60733C15.2918 8.60733 14.9076 8.49738 14.314 8.24084L14.0695 8.13089L13.8251 9.63351C14.2441 9.81675 15.0124 10 15.8156 10C16.933 10 17.841 9.67016 18.3648 9.08377L16.8632 7.5445ZM18.8886 9.81675H20.5299L20.8791 8.71728H23.114L23.3235 9.81675H24.9997L24.406 7.14136L22.3108 5.01571L22.4156 5.6021C22.4156 5.6021 22.7648 7.25131 22.8346 7.6178H21.368C21.5076 7.25131 22.0664 5.6754 22.0664 5.6754C22.0664 5.6754 22.206 5.27225 22.3108 5.01571" fill="#051244"/>
</g>
<defs>
<clipPath id="clip0_30_2319">
<rect width="22" height="7" fill="white" transform="translate(3 3)"/>
</clipPath>
</defs>
</svg>
